<svg xmlns="http://www.w3.org/2000/svg" viewBox="0 0 1215.38 941.48"><defs><style>.cls-1,.cls-10,.cls-11,.cls-2,.cls-8,.cls-9{fill:none;}.cls-2{stroke:#f78323;}.cls-10,.cls-11,.cls-12,.cls-2,.cls-8,.cls-9{stroke-miterlimit:10;}.cls-3{fill:#f65a5b;}.cls-4{opacity:0.5;}.cls-5{fill:#fff;}.cls-12,.cls-6{fill:#39d1b4;}.cls-7{fill:#4e768d;}.cls-8{stroke:#4e768d;}.cls-9{stroke:#52b1db;}.cls-10,.cls-12{stroke:#39d1b4;}.cls-11{stroke:#f65a5b;}.cls-12{stroke-width:0.25px;}</style></defs><title>express_yourself_diagram_1</title><g id="Layer_2" data-name="Layer 2"><g id="Layer_1-2" data-name="Layer 1"><rect class="cls-1" width="1215.38" height="941.48"/><rect class="cls-2" x="168.75" y="149.2" width="183.13" height="39.54"/><path class="cls-3" d="M246.7,352.86v-2h1.45v2Zm0,15.47V355.49h1.46v12.84Z"/><path class="cls-3" d="M252.72,368.33V355.49H254l.2,2a4.81,4.81,0,0,1,1.86-1.62,5.48,5.48,0,0,1,2.51-.59,4.06,4.06,0,0,1,3.26,1.22,5.93,5.93,0,0,1,1,3.89v8h-1.46V359.7a3.87,3.87,0,0,0-.73-2.46,2.81,2.81,0,0,0-2.19-.75,4.45,4.45,0,0,0-2.85.88,3.77,3.77,0,0,0-1.39,2.27q0,.55,0,1.15v7.54Z"/><path class="cls-3" d="M272.54,368.61a5.69,5.69,0,0,1-3.23-.91,5.6,5.6,0,0,1-2-2.38,7.83,7.83,0,0,1-.67-3.28,8.32,8.32,0,0,1,.4-2.6,7,7,0,0,1,1.13-2.16A5.13,5.13,0,0,1,270,355.8a6,6,0,0,1,2.57-.54,7.11,7.11,0,0,1,1.85.25,4,4,0,0,1,1.37.59l-.46,1.09a5.73,5.73,0,0,0-2.86-.68A3.8,3.8,0,0,0,269.3,358a6.41,6.41,0,0,0-1.17,4,6.1,6.1,0,0,0,1.17,3.88,3.83,3.83,0,0,0,3.18,1.48,7.62,7.62,0,0,0,3-.7l.22,1a4.11,4.11,0,0,1-1.43.64A7,7,0,0,1,272.54,368.61Z"/><path class="cls-3" d="M284.62,368.61a5.45,5.45,0,0,1-3.08-.88,5.63,5.63,0,0,1-2-2.38,8,8,0,0,1-.7-3.4,8.42,8.42,0,0,1,.4-2.65,6.39,6.39,0,0,1,1.15-2.12,5.23,5.23,0,0,1,1.86-1.41,5.87,5.87,0,0,1,2.47-.51,5.38,5.38,0,0,1,5.12,3.26,8.32,8.32,0,0,1,.66,3.4,8.21,8.21,0,0,1-.68,3.42,5.51,5.51,0,0,1-2,2.38A5.63,5.63,0,0,1,284.62,368.61Zm.11-1.16a3.77,3.77,0,0,0,2.37-.74,4.22,4.22,0,0,0,1.41-2,8.23,8.23,0,0,0,.44-2.8,6.85,6.85,0,0,0-1.05-4,3.65,3.65,0,0,0-3.21-1.51,3.83,3.83,0,0,0-2.4.76,4.34,4.34,0,0,0-1.45,2,8,8,0,0,0-.46,2.81,6.52,6.52,0,0,0,1.12,3.94A3.75,3.75,0,0,0,284.72,367.45Z"/><path class="cls-3" d="M294.33,368.33q0-11.31,0-12.84h1.2l.09,2.53a6,6,0,0,1,1.76-1.87,3.9,3.9,0,0,1,2.23-.73,7,7,0,0,1,1,.08l-.11,1.21a5.42,5.42,0,0,0-.89-.07,3.47,3.47,0,0,0-2.74,1.28,4.5,4.5,0,0,0-1.11,3v7.37Z"/><path class="cls-3" d="M303.67,368.33q0-11.31,0-12.84h1.2l.09,2.53a6,6,0,0,1,1.76-1.87,3.9,3.9,0,0,1,2.23-.73,7,7,0,0,1,1,.08l-.11,1.21a5.42,5.42,0,0,0-.89-.07,3.47,3.47,0,0,0-2.74,1.28,4.5,4.5,0,0,0-1.11,3v7.37Z"/><path class="cls-3" d="M318,368.61a5.34,5.34,0,0,1-4.22-1.78,7.06,7.06,0,0,1-1.56-4.83,7.37,7.37,0,0,1,1.53-4.82,5,5,0,0,1,4-1.93,4.53,4.53,0,0,1,3.63,1.62,6.48,6.48,0,0,1,1.37,4.34q0,.11,0,.43t0,.45h-8.94a6.15,6.15,0,0,0,1.2,3.92,3.78,3.78,0,0,0,3.09,1.45,7.25,7.25,0,0,0,2.18-.29,11.45,11.45,0,0,0,1.93-.83l.25,1.09A8.22,8.22,0,0,1,318,368.61Zm-4.2-7.7h7.31a5.11,5.11,0,0,0-.93-3.29,3.1,3.1,0,0,0-2.54-1.14A3.27,3.27,0,0,0,315,357.7,5.76,5.76,0,0,0,313.77,360.91Z"/><path class="cls-3" d="M331.89,368.61a5.69,5.69,0,0,1-3.23-.91,5.6,5.6,0,0,1-2-2.38,7.83,7.83,0,0,1-.67-3.28,8.32,8.32,0,0,1,.4-2.6,7,7,0,0,1,1.13-2.16,5.13,5.13,0,0,1,1.89-1.48,6,6,0,0,1,2.57-.54,7.11,7.11,0,0,1,1.85.25,4,4,0,0,1,1.37.59l-.46,1.09a5.73,5.73,0,0,0-2.86-.68,3.8,3.8,0,0,0-3.18,1.52,6.41,6.41,0,0,0-1.17,4,6.1,6.1,0,0,0,1.17,3.88,3.83,3.83,0,0,0,3.18,1.48,7.62,7.62,0,0,0,3-.7l.22,1a4.11,4.11,0,0,1-1.43.64A7,7,0,0,1,331.89,368.61Z"/><path class="cls-3" d="M342.42,368.6a3.29,3.29,0,0,1-2.37-.73,3.23,3.23,0,0,1-.75-2.38v-8.93h-1.82l.11-.88,1.73-.16.39-2.94,1-.07v3h3.75v1.07h-3.75v8.63a2.7,2.7,0,0,0,.45,1.82,2.14,2.14,0,0,0,1.57.46,7.7,7.7,0,0,0,1.8-.27l.06,1.13A12.13,12.13,0,0,1,342.42,368.6Z"/><g class="cls-4"><path class="cls-5" d="M158.13,299.54a4.27,4.27,0,0,1-2.43-.69,4.2,4.2,0,0,1-1.53-1.79,5.87,5.87,0,0,1-.5-2.46,6.24,6.24,0,0,1,.3-2,5.25,5.25,0,0,1,.85-1.62,3.84,3.84,0,0,1,1.42-1.11,4.47,4.47,0,0,1,1.93-.41,5.33,5.33,0,0,1,1.38.18,3,3,0,0,1,1,.44l-.34.82a4.3,4.3,0,0,0-2.14-.51,2.85,2.85,0,0,0-2.38,1.14,4.81,4.81,0,0,0-.88,3,4.58,4.58,0,0,0,.87,2.91,2.87,2.87,0,0,0,2.39,1.11,5.71,5.71,0,0,0,2.27-.53l.17.78a3.08,3.08,0,0,1-1.07.48A5.22,5.22,0,0,1,158.13,299.54Z"/><path class="cls-5" d="M163.31,299.33V286l1.09-.1v4.85a.36.36,0,0,1,0,.08.55.55,0,0,0,0,.1v.26a3.91,3.91,0,0,1,3.38-1.63q3.14,0,3.14,3.79v6h-1.08v-5.81a4.24,4.24,0,0,0-.5-2.35,2,2,0,0,0-1.77-.73,3.26,3.26,0,0,0-2.09.66,2.76,2.76,0,0,0-1,1.71q0,.35,0,1v5.47Z"/><path class="cls-5" d="M178,299.54a4,4,0,0,1-3.17-1.34,5.29,5.29,0,0,1-1.17-3.62,5.53,5.53,0,0,1,1.15-3.61,3.78,3.78,0,0,1,3-1.45,3.39,3.39,0,0,1,2.72,1.21,4.86,4.86,0,0,1,1,3.25c0,.05,0,.16,0,.32s0,.27,0,.34h-6.71a4.61,4.61,0,0,0,.9,2.94,2.84,2.84,0,0,0,2.32,1.09,5.44,5.44,0,0,0,1.63-.22,8.59,8.59,0,0,0,1.45-.62l.18.82A6.17,6.17,0,0,1,178,299.54Zm-3.15-5.77h5.48a3.83,3.83,0,0,0-.69-2.47,2.32,2.32,0,0,0-1.91-.86,2.45,2.45,0,0,0-2,.91A4.32,4.32,0,0,0,174.89,293.77Z"/><path class="cls-5" d="M188.48,299.54a4.27,4.27,0,0,1-2.43-.69,4.2,4.2,0,0,1-1.53-1.79,5.87,5.87,0,0,1-.5-2.46,6.24,6.24,0,0,1,.3-2,5.25,5.25,0,0,1,.85-1.62,3.84,3.84,0,0,1,1.42-1.11,4.47,4.47,0,0,1,1.93-.41,5.33,5.33,0,0,1,1.38.18,3,3,0,0,1,1,.44l-.34.82a4.3,4.3,0,0,0-2.14-.51,2.85,2.85,0,0,0-2.38,1.14,4.81,4.81,0,0,0-.88,3,4.58,4.58,0,0,0,.87,2.91,2.87,2.87,0,0,0,2.39,1.11,5.71,5.71,0,0,0,2.27-.53l.17.78a3.08,3.08,0,0,1-1.07.48A5.22,5.22,0,0,1,188.48,299.54Z"/><path class="cls-5" d="M193.68,299.33V286l1.08-.09v8.47l.56-.62.54-.6,3.33-3.42h1.47l-4,4,4.32,5.61h-1.38l-3.68-5-1.12,1v4Z"/><path class="cls-5" d="M205.86,299.55a6.47,6.47,0,0,1-1.75-.23,4.57,4.57,0,0,1-1.29-.54l.16-.91a6,6,0,0,0,2.78.76q2.38,0,2.47-1.77a1.47,1.47,0,0,0-.48-1.16,5.84,5.84,0,0,0-1.92-.88l-.83-.29q-2.26-.69-2.28-2.43a2.32,2.32,0,0,1,.89-1.79,3.54,3.54,0,0,1,2.41-.78,6.91,6.91,0,0,1,2.86.6l-.37.81a7.17,7.17,0,0,0-2.51-.51,2.54,2.54,0,0,0-1.6.46,1.48,1.48,0,0,0-.58,1.23,1.28,1.28,0,0,0,.38,1,4,4,0,0,0,1.52.66l.45.16.36.13a4.93,4.93,0,0,1,2.12,1.1,2.42,2.42,0,0,1,.6,1.74,2.38,2.38,0,0,1-.94,2A4,4,0,0,1,205.86,299.55Z"/><path class="cls-5" d="M219.57,299.53a2.46,2.46,0,0,1-1.78-.55,2.42,2.42,0,0,1-.56-1.79v-6.7h-1.36l.08-.66,1.3-.12.29-2.21.76-.05v2.24h2.81v.8H218.3V297a2,2,0,0,0,.33,1.37,1.6,1.6,0,0,0,1.18.35,5.77,5.77,0,0,0,1.35-.2l0,.84A9.1,9.1,0,0,1,219.57,299.53Z"/><path class="cls-5" d="M223.51,299.33V286l1.09-.1v4.85a.33.33,0,0,1,0,.08.55.55,0,0,0,0,.1v.26a3.91,3.91,0,0,1,3.38-1.63q3.14,0,3.14,3.79v6H230v-5.81a4.24,4.24,0,0,0-.5-2.35,2,2,0,0,0-1.77-.73,3.26,3.26,0,0,0-2.09.66,2.76,2.76,0,0,0-1,1.71q0,.35,0,1v5.47Z"/><path class="cls-5" d="M238.24,299.54a4,4,0,0,1-3.17-1.34,5.29,5.29,0,0,1-1.17-3.62A5.53,5.53,0,0,1,235,291a3.78,3.78,0,0,1,3-1.45,3.39,3.39,0,0,1,2.72,1.21,4.86,4.86,0,0,1,1,3.25c0,.05,0,.16,0,.32s0,.27,0,.34H235a4.61,4.61,0,0,0,.9,2.94,2.84,2.84,0,0,0,2.32,1.09,5.44,5.44,0,0,0,1.63-.22,8.59,8.59,0,0,0,1.45-.62l.18.82A6.17,6.17,0,0,1,238.24,299.54Zm-3.15-5.77h5.48a3.83,3.83,0,0,0-.69-2.47,2.32,2.32,0,0,0-1.91-.86,2.45,2.45,0,0,0-2,.91A4.32,4.32,0,0,0,235.09,293.77Z"/><path class="cls-5" d="M158.26,321.14a3.65,3.65,0,0,1-3.12-1.61l-.11,1.4h-.91V307.56l1.08-.1v3.24q0,1.49,0,2a3.37,3.37,0,0,1,1.37-1.23,3.9,3.9,0,0,1,1.73-.4,3.65,3.65,0,0,1,3,1.39,5.64,5.64,0,0,1,1.09,3.59,6.9,6.9,0,0,1-.45,2.6,3.79,3.79,0,0,1-3.69,2.44Zm.05-.87a2.72,2.72,0,0,0,1.4-.35,2.37,2.37,0,0,0,.91-.95,4.84,4.84,0,0,0,.47-1.3,7.46,7.46,0,0,0,.15-1.52,8.55,8.55,0,0,0-.08-1.23,5.07,5.07,0,0,0-.3-1.12,3.39,3.39,0,0,0-.54-.94,2.33,2.33,0,0,0-.83-.62,2.77,2.77,0,0,0-1.17-.24A2.71,2.71,0,0,0,156,313.1a5.14,5.14,0,0,0-.79,3.11,7.19,7.19,0,0,0,.17,1.65,3.91,3.91,0,0,0,.54,1.27,2.4,2.4,0,0,0,1,.84A3.27,3.27,0,0,0,158.31,320.27Z"/><path class="cls-5" d="M167.69,321.13a2.46,2.46,0,0,1-1.78-.55,2.42,2.42,0,0,1-.56-1.79V307.55l1.07-.09v11.27a1.76,1.76,0,0,0,.32,1.21,1.29,1.29,0,0,0,1,.33,5.52,5.52,0,0,0,1.32-.2l0,.84A6.15,6.15,0,0,1,167.69,321.13Z"/><path class="cls-5" d="M175,321.14a4.09,4.09,0,0,1-2.31-.66,4.22,4.22,0,0,1-1.52-1.79,6,6,0,0,1-.52-2.55,6.31,6.31,0,0,1,.3-2,4.79,4.79,0,0,1,.87-1.59,3.92,3.92,0,0,1,1.4-1.05,4.4,4.4,0,0,1,1.85-.38,4,4,0,0,1,3.84,2.45,6.24,6.24,0,0,1,.5,2.55,6.16,6.16,0,0,1-.51,2.57,4.13,4.13,0,0,1-1.52,1.79A4.23,4.23,0,0,1,175,321.14Zm.08-.87a2.83,2.83,0,0,0,1.78-.56,3.17,3.17,0,0,0,1.05-1.47,6.18,6.18,0,0,0,.33-2.1,5.14,5.14,0,0,0-.79-3A2.74,2.74,0,0,0,175,312a2.87,2.87,0,0,0-1.8.57,3.26,3.26,0,0,0-1.09,1.49,6,6,0,0,0-.34,2.1,4.89,4.89,0,0,0,.84,3A2.81,2.81,0,0,0,175.08,320.27Z"/><path class="cls-5" d="M186.29,321.14a4.27,4.27,0,0,1-2.43-.69,4.2,4.2,0,0,1-1.53-1.79,5.87,5.87,0,0,1-.5-2.46,6.24,6.24,0,0,1,.3-2,5.25,5.25,0,0,1,.85-1.62,3.84,3.84,0,0,1,1.42-1.11,4.47,4.47,0,0,1,1.93-.41,5.33,5.33,0,0,1,1.38.18,3,3,0,0,1,1,.44l-.34.82a4.3,4.3,0,0,0-2.14-.51,2.85,2.85,0,0,0-2.38,1.14,4.81,4.81,0,0,0-.88,3,4.58,4.58,0,0,0,.87,2.91,2.87,2.87,0,0,0,2.39,1.11,5.71,5.71,0,0,0,2.27-.53l.17.78a3.08,3.08,0,0,1-1.07.48A5.22,5.22,0,0,1,186.29,321.14Z"/><path class="cls-5" d="M191.49,320.93V307.55l1.08-.09v8.47l.56-.62.54-.6L197,311.3h1.47l-4,4,4.32,5.61h-1.38l-3.68-5-1.12,1v4Z"/><path class="cls-5" d="M208.22,321.14a3.28,3.28,0,0,1-2.18-.69,2.41,2.41,0,0,1-.82-2,2.56,2.56,0,0,1,.33-1.31,2.45,2.45,0,0,1,.95-.91,5.58,5.58,0,0,1,1.42-.54,11.56,11.56,0,0,1,1.85-.27l1.67-.11v-1.07a2.41,2.41,0,0,0-.5-1.67,2.09,2.09,0,0,0-1.62-.56,5.84,5.84,0,0,0-2.86.73l-.16-.38q-.13-.29-.18-.45a5.08,5.08,0,0,1,1.42-.59,6.59,6.59,0,0,1,1.72-.24,3.46,3.46,0,0,1,2.49.74,3.64,3.64,0,0,1,.76,2.63v6.43h-.85q0-.2-.13-.8t-.08-.62A3.68,3.68,0,0,1,208.22,321.14Zm0-.87a3.22,3.22,0,0,0,2-.66,3.1,3.1,0,0,0,1.15-1.84v-1.64l-1.27.11a7.48,7.48,0,0,0-3,.7,1.72,1.72,0,0,0-.83,1.58,1.61,1.61,0,0,0,.53,1.32A2.14,2.14,0,0,0,208.26,320.27Z"/><path class="cls-5" d="M215.83,320.93V311.3h.95l.15,1.49a3.61,3.61,0,0,1,1.39-1.22,4.11,4.11,0,0,1,1.89-.44,3,3,0,0,1,2.44.91,4.44,4.44,0,0,1,.78,2.92v6h-1.1v-6.47a2.9,2.9,0,0,0-.54-1.85,2.1,2.1,0,0,0-1.64-.56,3.34,3.34,0,0,0-2.14.66,2.82,2.82,0,0,0-1,1.71q0,.41,0,.86v5.65Z"/><path class="cls-5" d="M230.32,321.13a3.64,3.64,0,0,1-3-1.34,5.73,5.73,0,0,1-1.08-3.69,5.57,5.57,0,0,1,1.11-3.6,3.58,3.58,0,0,1,2.93-1.38,4.49,4.49,0,0,1,1.79.39,2.79,2.79,0,0,1,1.36,1.2v-5.15l1.05-.1v13.46h-.91l-.16-1.45a3.21,3.21,0,0,1-1.36,1.23A4,4,0,0,1,230.32,321.13Zm0-.86a3.24,3.24,0,0,0,1.43-.3,2.47,2.47,0,0,0,1-.84,4,4,0,0,0,.55-1.25,6.36,6.36,0,0,0,.18-1.57q0-4.3-3.16-4.3a2.44,2.44,0,0,0-1.32.36,2.55,2.55,0,0,0-.9,1,5,5,0,0,0-.49,1.31,6.81,6.81,0,0,0-.16,1.49,7.9,7.9,0,0,0,.1,1.27,5.15,5.15,0,0,0,.32,1.13,3.39,3.39,0,0,0,.54.92,2.31,2.31,0,0,0,.82.61A2.64,2.64,0,0,0,230.29,320.27Z"/><path class="cls-5" d="M243.19,320.93V312.1h-1.58l.07-.68,1.51-.12v-.36a4.55,4.55,0,0,1,.66-2.76,2.41,2.41,0,0,1,2-.86,11.32,11.32,0,0,1,1.34.13l-.08.72q-.84-.1-1.14-.1a1.43,1.43,0,0,0-1.37.65,5,5,0,0,0-.36,2.27v.31h2.35v.8h-2.35v8.83Z"/><path class="cls-5" d="M251.49,321.14a3.28,3.28,0,0,1-2.18-.69,2.41,2.41,0,0,1-.82-2,2.56,2.56,0,0,1,.33-1.31,2.45,2.45,0,0,1,.94-.91,5.58,5.58,0,0,1,1.42-.54,11.57,11.57,0,0,1,1.85-.27l1.67-.11v-1.07a2.41,2.41,0,0,0-.51-1.67,2.09,2.09,0,0,0-1.62-.56,5.84,5.84,0,0,0-2.86.73l-.16-.38q-.13-.29-.18-.45a5.08,5.08,0,0,1,1.42-.59,6.59,6.59,0,0,1,1.72-.24,3.46,3.46,0,0,1,2.49.74,3.64,3.64,0,0,1,.76,2.63v6.43h-.85q0-.2-.13-.8t-.08-.62A3.68,3.68,0,0,1,251.49,321.14Zm0-.87a3.22,3.22,0,0,0,2-.66,3.1,3.1,0,0,0,1.15-1.84v-1.64l-1.27.11a7.48,7.48,0,0,0-3,.7,1.72,1.72,0,0,0-.83,1.58,1.61,1.61,0,0,0,.53,1.32A2.15,2.15,0,0,0,251.52,320.27Z"/><path class="cls-5" d="M259.21,309.33v-1.48h1.09v1.48Zm0,11.6V311.3h1.1v9.63Z"/><path class="cls-5" d="M266.16,321.13a2.46,2.46,0,0,1-1.78-.55,2.42,2.42,0,0,1-.56-1.79V307.55l1.07-.09v11.27a1.76,1.76,0,0,0,.32,1.21,1.29,1.29,0,0,0,1,.33,5.52,5.52,0,0,0,1.32-.2l0,.84A6.15,6.15,0,0,1,266.16,321.13Z"/><path class="cls-5" d="M272.37,321.15a6.47,6.47,0,0,1-1.75-.23,4.57,4.57,0,0,1-1.29-.54l.16-.91a6,6,0,0,0,2.78.76q2.38,0,2.47-1.77a1.47,1.47,0,0,0-.48-1.16,5.83,5.83,0,0,0-1.92-.88l-.83-.29q-2.26-.69-2.28-2.43a2.32,2.32,0,0,1,.89-1.79,3.54,3.54,0,0,1,2.41-.78,6.91,6.91,0,0,1,2.86.6l-.37.81a7.17,7.17,0,0,0-2.51-.51,2.54,2.54,0,0,0-1.6.46,1.48,1.48,0,0,0-.58,1.23,1.28,1.28,0,0,0,.38,1,4,4,0,0,0,1.52.66l.45.16.37.13a4.93,4.93,0,0,1,2.12,1.1,2.43,2.43,0,0,1,.6,1.74,2.38,2.38,0,0,1-.95,2A3.94,3.94,0,0,1,272.37,321.15Z"/></g><g class="cls-4"><path class="cls-5" d="M102.63,508a4.27,4.27,0,0,1-2.43-.69,4.2,4.2,0,0,1-1.53-1.79,5.87,5.87,0,0,1-.5-2.46,6.24,6.24,0,0,1,.3-2,5.25,5.25,0,0,1,.85-1.62,3.85,3.85,0,0,1,1.42-1.11,4.46,4.46,0,0,1,1.93-.41,5.34,5.34,0,0,1,1.38.18,3,3,0,0,1,1,.44l-.34.82a4.3,4.3,0,0,0-2.14-.51,2.85,2.85,0,0,0-2.38,1.14,4.81,4.81,0,0,0-.88,3,4.58,4.58,0,0,0,.88,2.91,2.87,2.87,0,0,0,2.39,1.11,5.71,5.71,0,0,0,2.27-.53l.17.78a3.08,3.08,0,0,1-1.07.48A5.22,5.22,0,0,1,102.63,508Z"/><path class="cls-5" d="M107.82,507.82V494.45l1.09-.1v4.85a.45.45,0,0,1,0,.08.5.5,0,0,0,0,.1c0,.06,0,.15,0,.26a3.91,3.91,0,0,1,3.38-1.63q3.14,0,3.14,3.79v6h-1.08V502a4.24,4.24,0,0,0-.5-2.35,2,2,0,0,0-1.77-.72,3.26,3.26,0,0,0-2.09.66,2.76,2.76,0,0,0-1,1.71q0,.35,0,1v5.47Z"/><path class="cls-5" d="M122.54,508a4,4,0,0,1-3.17-1.34,5.29,5.29,0,0,1-1.17-3.62,5.54,5.54,0,0,1,1.15-3.61,3.78,3.78,0,0,1,3-1.45,3.39,3.39,0,0,1,2.72,1.21,4.86,4.86,0,0,1,1,3.25c0,.05,0,.16,0,.32s0,.27,0,.34h-6.71a4.61,4.61,0,0,0,.9,2.94,2.84,2.84,0,0,0,2.32,1.09,5.44,5.44,0,0,0,1.63-.22,8.59,8.59,0,0,0,1.45-.62l.18.82A6.17,6.17,0,0,1,122.54,508Zm-3.15-5.77h5.48a3.83,3.83,0,0,0-.69-2.47,2.32,2.32,0,0,0-1.91-.86,2.45,2.45,0,0,0-2,.91A4.32,4.32,0,0,0,119.39,502.26Z"/><path class="cls-5" d="M133,508a4.27,4.27,0,0,1-2.43-.69,4.2,4.2,0,0,1-1.53-1.79,5.87,5.87,0,0,1-.5-2.46,6.24,6.24,0,0,1,.3-2,5.25,5.25,0,0,1,.85-1.62,3.85,3.85,0,0,1,1.42-1.11A4.46,4.46,0,0,1,133,498a5.33,5.33,0,0,1,1.38.18,3,3,0,0,1,1,.44l-.34.82a4.3,4.3,0,0,0-2.14-.51,2.85,2.85,0,0,0-2.38,1.14,4.81,4.81,0,0,0-.88,3,4.58,4.58,0,0,0,.87,2.91,2.87,2.87,0,0,0,2.39,1.11,5.71,5.71,0,0,0,2.27-.53l.17.78a3.08,3.08,0,0,1-1.07.48A5.22,5.22,0,0,1,133,508Z"/><path class="cls-5" d="M138.18,507.82V494.44l1.08-.09v8.47l.56-.62.54-.6,3.33-3.42h1.47l-4,4,4.32,5.61h-1.38l-3.68-5-1.12,1v4Z"/><path class="cls-5" d="M150.36,508a6.47,6.47,0,0,1-1.75-.23,4.57,4.57,0,0,1-1.29-.54l.16-.91a6,6,0,0,0,2.78.76q2.38,0,2.47-1.77a1.46,1.46,0,0,0-.48-1.16,5.82,5.82,0,0,0-1.92-.88l-.83-.29q-2.26-.69-2.28-2.43a2.32,2.32,0,0,1,.89-1.79,3.54,3.54,0,0,1,2.41-.78,6.91,6.91,0,0,1,2.86.6l-.37.81a7.17,7.17,0,0,0-2.51-.51,2.54,2.54,0,0,0-1.6.46,1.48,1.48,0,0,0-.58,1.23,1.27,1.27,0,0,0,.38,1,4,4,0,0,0,1.52.66l.45.16.36.13a4.92,4.92,0,0,1,2.12,1.1,2.42,2.42,0,0,1,.6,1.74,2.38,2.38,0,0,1-.94,2A4,4,0,0,1,150.36,508Z"/><path class="cls-5" d="M164.07,508a2.46,2.46,0,0,1-1.78-.55,2.42,2.42,0,0,1-.56-1.79V499h-1.36l.08-.66,1.3-.12L162,496l.76-.05v2.24h2.81v.8h-2.81v6.47a2,2,0,0,0,.33,1.37,1.6,1.6,0,0,0,1.18.35,5.77,5.77,0,0,0,1.35-.2l0,.84A9.11,9.11,0,0,1,164.07,508Z"/><path class="cls-5" d="M168,507.82V494.45l1.09-.1v4.85a.36.36,0,0,1,0,.08.55.55,0,0,0,0,.1v.26a3.91,3.91,0,0,1,3.38-1.63q3.14,0,3.14,3.79v6h-1.08V502a4.24,4.24,0,0,0-.5-2.35,2,2,0,0,0-1.77-.72,3.26,3.26,0,0,0-2.09.66,2.76,2.76,0,0,0-1,1.71q0,.35,0,1v5.47Z"/><path class="cls-5" d="M182.74,508a4,4,0,0,1-3.17-1.34,5.3,5.3,0,0,1-1.17-3.62,5.53,5.53,0,0,1,1.15-3.61,3.78,3.78,0,0,1,3-1.45,3.39,3.39,0,0,1,2.72,1.21,4.86,4.86,0,0,1,1,3.25c0,.05,0,.16,0,.32s0,.27,0,.34h-6.71a4.61,4.61,0,0,0,.9,2.94,2.84,2.84,0,0,0,2.32,1.09,5.44,5.44,0,0,0,1.63-.22,8.59,8.59,0,0,0,1.45-.62l.18.82A6.17,6.17,0,0,1,182.74,508Zm-3.15-5.77h5.48a3.83,3.83,0,0,0-.69-2.47,2.32,2.32,0,0,0-1.91-.86,2.45,2.45,0,0,0-2,.91A4.32,4.32,0,0,0,179.59,502.26Z"/><path class="cls-5" d="M102.77,529.63A3.66,3.66,0,0,1,99.64,528l-.11,1.4h-.91V516.05l1.08-.1v3.24q0,1.49,0,2A3.37,3.37,0,0,1,101,520a3.9,3.9,0,0,1,1.73-.4,3.65,3.65,0,0,1,3,1.39,5.64,5.64,0,0,1,1.09,3.59,6.9,6.9,0,0,1-.45,2.6,3.79,3.79,0,0,1-3.69,2.44Zm.05-.87a2.72,2.72,0,0,0,1.4-.35,2.37,2.37,0,0,0,.91-.95,4.84,4.84,0,0,0,.47-1.3,7.47,7.47,0,0,0,.14-1.52,8.54,8.54,0,0,0-.08-1.23,5.07,5.07,0,0,0-.3-1.12,3.39,3.39,0,0,0-.54-.94,2.33,2.33,0,0,0-.83-.62,2.77,2.77,0,0,0-1.17-.24,2.71,2.71,0,0,0-2.33,1.09,5.13,5.13,0,0,0-.8,3.11,7.19,7.19,0,0,0,.17,1.65,3.91,3.91,0,0,0,.54,1.27,2.4,2.4,0,0,0,1,.84A3.27,3.27,0,0,0,102.82,528.76Z"/><path class="cls-5" d="M112.2,529.62a2.46,2.46,0,0,1-1.78-.55,2.42,2.42,0,0,1-.56-1.79V516l1.07-.09v11.27a1.76,1.76,0,0,0,.32,1.21,1.29,1.29,0,0,0,1,.33,5.52,5.52,0,0,0,1.32-.2l0,.84A6.15,6.15,0,0,1,112.2,529.62Z"/><path class="cls-5" d="M119.51,529.63a4.09,4.09,0,0,1-2.31-.66,4.22,4.22,0,0,1-1.52-1.79,6,6,0,0,1-.52-2.55,6.34,6.34,0,0,1,.3-2,4.81,4.81,0,0,1,.87-1.59,3.92,3.92,0,0,1,1.4-1.05,4.4,4.4,0,0,1,1.85-.38,4,4,0,0,1,3.84,2.45,6.26,6.26,0,0,1,.5,2.55,6.16,6.16,0,0,1-.51,2.57,4.14,4.14,0,0,1-1.52,1.79A4.22,4.22,0,0,1,119.51,529.63Zm.08-.87a2.83,2.83,0,0,0,1.78-.56,3.15,3.15,0,0,0,1.05-1.47,6.15,6.15,0,0,0,.33-2.1,5.14,5.14,0,0,0-.79-3,2.74,2.74,0,0,0-2.41-1.13,2.87,2.87,0,0,0-1.8.57,3.25,3.25,0,0,0-1.09,1.49,6,6,0,0,0-.34,2.1,4.89,4.89,0,0,0,.84,3A2.81,2.81,0,0,0,119.59,528.76Z"/><path class="cls-5" d="M130.79,529.63a4.27,4.27,0,0,1-2.43-.69,4.2,4.2,0,0,1-1.53-1.79,5.87,5.87,0,0,1-.5-2.46,6.24,6.24,0,0,1,.3-2,5.25,5.25,0,0,1,.85-1.62A3.84,3.84,0,0,1,128.9,520a4.46,4.46,0,0,1,1.93-.41,5.34,5.34,0,0,1,1.38.18,3,3,0,0,1,1,.44l-.34.82a4.3,4.3,0,0,0-2.14-.51,2.85,2.85,0,0,0-2.38,1.14,4.81,4.81,0,0,0-.88,3,4.58,4.58,0,0,0,.88,2.91,2.87,2.87,0,0,0,2.39,1.11,5.71,5.71,0,0,0,2.27-.53l.17.78a3.08,3.08,0,0,1-1.07.48A5.22,5.22,0,0,1,130.79,529.63Z"/><path class="cls-5" d="M136,529.42V516l1.08-.09v8.47l.56-.62.54-.6,3.33-3.42H143l-4,4,4.31,5.61h-1.38l-3.68-5-1.12,1v4Z"/><path class="cls-5" d="M152.73,529.63a3.28,3.28,0,0,1-2.18-.69,2.41,2.41,0,0,1-.82-2,2.56,2.56,0,0,1,.33-1.31,2.44,2.44,0,0,1,.95-.91,5.57,5.57,0,0,1,1.41-.54,11.59,11.59,0,0,1,1.85-.27l1.67-.11v-1.07a2.41,2.41,0,0,0-.5-1.67,2.09,2.09,0,0,0-1.62-.56,5.84,5.84,0,0,0-2.86.73l-.16-.38c-.09-.2-.15-.35-.18-.45a5.08,5.08,0,0,1,1.42-.59,6.59,6.59,0,0,1,1.72-.24,3.46,3.46,0,0,1,2.49.74A3.64,3.64,0,0,1,157,523v6.43h-.85c0-.13-.07-.4-.13-.8s-.08-.6-.08-.62A3.68,3.68,0,0,1,152.73,529.63Zm0-.87a3.22,3.22,0,0,0,2-.66,3.11,3.11,0,0,0,1.15-1.84v-1.64l-1.27.11a7.48,7.48,0,0,0-3,.7,1.72,1.72,0,0,0-.83,1.58,1.61,1.61,0,0,0,.53,1.32A2.14,2.14,0,0,0,152.76,528.76Z"/><path class="cls-5" d="M160.34,529.42v-9.63h.95l.15,1.49a3.61,3.61,0,0,1,1.39-1.22,4.11,4.11,0,0,1,1.89-.44,3,3,0,0,1,2.44.91,4.45,4.45,0,0,1,.78,2.92v6h-1.1V523a2.9,2.9,0,0,0-.54-1.85,2.11,2.11,0,0,0-1.64-.56,3.34,3.34,0,0,0-2.14.66,2.82,2.82,0,0,0-1,1.71q0,.41,0,.86v5.65Z"/><path class="cls-5" d="M174.82,529.62a3.64,3.64,0,0,1-3-1.34,5.73,5.73,0,0,1-1.08-3.69,5.57,5.57,0,0,1,1.11-3.6,3.57,3.57,0,0,1,2.93-1.38,4.49,4.49,0,0,1,1.79.39,2.8,2.8,0,0,1,1.36,1.2v-5.15L179,516v13.46h-.91l-.16-1.45a3.21,3.21,0,0,1-1.36,1.24A4,4,0,0,1,174.82,529.62Zm0-.86a3.24,3.24,0,0,0,1.43-.3,2.47,2.47,0,0,0,1-.84,4,4,0,0,0,.55-1.25,6.36,6.36,0,0,0,.18-1.57q0-4.3-3.16-4.3a2.44,2.44,0,0,0-1.32.36,2.55,2.55,0,0,0-.9,1,5,5,0,0,0-.49,1.31,6.81,6.81,0,0,0-.16,1.49,7.91,7.91,0,0,0,.1,1.27,5.15,5.15,0,0,0,.32,1.13,3.39,3.39,0,0,0,.54.92,2.32,2.32,0,0,0,.82.61A2.64,2.64,0,0,0,174.79,528.76Z"/><path class="cls-5" d="M187.09,533.71V519.79h1l.1,1.37a5.24,5.24,0,0,1,1.38-1.16,3.31,3.31,0,0,1,1.63-.39,3.6,3.6,0,0,1,3.08,1.37,6.11,6.11,0,0,1,1,3.74,5.56,5.56,0,0,1-1.08,3.54,3.53,3.53,0,0,1-2.93,1.38,3.77,3.77,0,0,1-1.79-.45,3.63,3.63,0,0,1-1.34-1.18q0,1.08,0,2.13v3.5Zm4.1-5a2.47,2.47,0,0,0,1.33-.36,2.68,2.68,0,0,0,.92-1,5,5,0,0,0,.51-1.3,6.24,6.24,0,0,0,.17-1.47,6.37,6.37,0,0,0-.17-1.48,5,5,0,0,0-.51-1.3,2.61,2.61,0,0,0-.93-1,2.52,2.52,0,0,0-1.34-.36,3.14,3.14,0,0,0-1.41.29,2.31,2.31,0,0,0-.94.84,3.9,3.9,0,0,0-.51,1.24,7.06,7.06,0,0,0-.16,1.56,9,9,0,0,0,.15,1.75,4.34,4.34,0,0,0,.49,1.33,2.2,2.2,0,0,0,.94.88A3.21,3.21,0,0,0,191.19,528.73Z"/><path class="cls-5" d="M200.62,529.63a3.28,3.28,0,0,1-2.18-.69,2.42,2.42,0,0,1-.82-2,2.56,2.56,0,0,1,.33-1.31,2.45,2.45,0,0,1,.94-.91,5.58,5.58,0,0,1,1.42-.54,11.56,11.56,0,0,1,1.85-.27l1.67-.11v-1.07a2.41,2.41,0,0,0-.5-1.67,2.09,2.09,0,0,0-1.62-.56,5.83,5.83,0,0,0-2.86.73l-.16-.38q-.13-.29-.18-.45a5.08,5.08,0,0,1,1.42-.59,6.59,6.59,0,0,1,1.72-.24,3.47,3.47,0,0,1,2.49.74,3.64,3.64,0,0,1,.76,2.63v6.43H204q0-.2-.13-.8t-.08-.62A3.68,3.68,0,0,1,200.62,529.63Zm0-.87a3.22,3.22,0,0,0,2-.66,3.1,3.1,0,0,0,1.15-1.84v-1.64l-1.28.11a7.48,7.48,0,0,0-3,.7,1.72,1.72,0,0,0-.84,1.58,1.61,1.61,0,0,0,.53,1.32A2.15,2.15,0,0,0,200.65,528.76Z"/><path class="cls-5" d="M211,529.64a6.47,6.47,0,0,1-1.75-.23,4.57,4.57,0,0,1-1.29-.54l.16-.91a6,6,0,0,0,2.78.76q2.38,0,2.47-1.77a1.47,1.47,0,0,0-.48-1.16,5.85,5.85,0,0,0-1.92-.88l-.83-.29q-2.26-.69-2.28-2.43a2.32,2.32,0,0,1,.89-1.79,3.55,3.55,0,0,1,2.41-.78,6.91,6.91,0,0,1,2.86.6l-.37.81a7.17,7.17,0,0,0-2.51-.51,2.54,2.54,0,0,0-1.6.46,1.48,1.48,0,0,0-.58,1.23,1.28,1.28,0,0,0,.38,1,4,4,0,0,0,1.52.66l.45.16.37.13a4.94,4.94,0,0,1,2.12,1.1,2.43,2.43,0,0,1,.6,1.74,2.38,2.38,0,0,1-.95,2A3.94,3.94,0,0,1,211,529.64Z"/><path class="cls-5" d="M220.05,529.64a6.47,6.47,0,0,1-1.75-.23,4.57,4.57,0,0,1-1.29-.54l.16-.91a6,6,0,0,0,2.78.76q2.38,0,2.47-1.77a1.46,1.46,0,0,0-.48-1.16,5.82,5.82,0,0,0-1.92-.88l-.83-.29q-2.26-.69-2.28-2.43a2.32,2.32,0,0,1,.89-1.79,3.54,3.54,0,0,1,2.41-.78,6.91,6.91,0,0,1,2.86.6l-.37.81a7.17,7.17,0,0,0-2.51-.51,2.54,2.54,0,0,0-1.6.46,1.48,1.48,0,0,0-.58,1.23,1.28,1.28,0,0,0,.38,1,4,4,0,0,0,1.52.66l.45.16.36.13a4.92,4.92,0,0,1,2.12,1.1,2.42,2.42,0,0,1,.6,1.74,2.38,2.38,0,0,1-.94,2A4,4,0,0,1,220.05,529.64Z"/><path class="cls-5" d="M230.16,529.63a4,4,0,0,1-3.17-1.34,5.29,5.29,0,0,1-1.17-3.62,5.53,5.53,0,0,1,1.15-3.61,3.78,3.78,0,0,1,3-1.45,3.39,3.39,0,0,1,2.72,1.21,4.86,4.86,0,0,1,1,3.25c0,.05,0,.16,0,.32s0,.27,0,.34H227a4.61,4.61,0,0,0,.9,2.94,2.84,2.84,0,0,0,2.32,1.08,5.44,5.44,0,0,0,1.63-.22,8.59,8.59,0,0,0,1.45-.62l.18.82A6.16,6.16,0,0,1,230.16,529.63ZM227,523.86h5.48a3.83,3.83,0,0,0-.7-2.46,2.32,2.32,0,0,0-1.91-.86,2.45,2.45,0,0,0-2,.91A4.32,4.32,0,0,0,227,523.86Z"/><path class="cls-5" d="M239.4,529.64a6.48,6.48,0,0,1-1.75-.23,4.56,4.56,0,0,1-1.29-.54l.16-.91a6,6,0,0,0,2.78.76q2.38,0,2.47-1.77a1.47,1.47,0,0,0-.48-1.16,5.83,5.83,0,0,0-1.92-.88l-.84-.29q-2.26-.69-2.28-2.43a2.32,2.32,0,0,1,.89-1.79,3.55,3.55,0,0,1,2.41-.78,6.91,6.91,0,0,1,2.86.6L242,521a7.17,7.17,0,0,0-2.51-.51,2.54,2.54,0,0,0-1.6.46,1.48,1.48,0,0,0-.58,1.23,1.28,1.28,0,0,0,.38,1,4,4,0,0,0,1.52.66l.45.16.36.13a4.93,4.93,0,0,1,2.12,1.1,2.42,2.42,0,0,1,.6,1.74,2.38,2.38,0,0,1-.94,2A3.94,3.94,0,0,1,239.4,529.64Z"/></g><path class="cls-6" d="M367.13,290.54a4.27,4.27,0,0,1-2.43-.69,4.2,4.2,0,0,1-1.53-1.79,5.87,5.87,0,0,1-.5-2.46,6.24,6.24,0,0,1,.3-2,5.25,5.25,0,0,1,.85-1.62,3.84,3.84,0,0,1,1.42-1.11,4.46,4.46,0,0,1,1.93-.41,5.34,5.34,0,0,1,1.38.18,3,3,0,0,1,1,.44l-.34.82a4.3,4.3,0,0,0-2.14-.51,2.85,2.85,0,0,0-2.38,1.14,4.81,4.81,0,0,0-.88,3,4.58,4.58,0,0,0,.88,2.91,2.87,2.87,0,0,0,2.39,1.11,5.71,5.71,0,0,0,2.27-.53l.17.78a3.08,3.08,0,0,1-1.07.48A5.22,5.22,0,0,1,367.13,290.54Z"/><path class="cls-6" d="M376.19,290.54a4.09,4.09,0,0,1-2.31-.66,4.22,4.22,0,0,1-1.52-1.79,6,6,0,0,1-.52-2.55,6.34,6.34,0,0,1,.3-2A4.81,4.81,0,0,1,373,282a3.92,3.92,0,0,1,1.4-1.05,4.4,4.4,0,0,1,1.85-.38A4,4,0,0,1,380.1,283a6.26,6.26,0,0,1,.5,2.55,6.16,6.16,0,0,1-.51,2.57,4.13,4.13,0,0,1-1.52,1.79A4.23,4.23,0,0,1,376.19,290.54Zm.08-.87a2.83,2.83,0,0,0,1.78-.56,3.15,3.15,0,0,0,1.05-1.47,6.15,6.15,0,0,0,.33-2.1,5.14,5.14,0,0,0-.79-3,2.74,2.74,0,0,0-2.41-1.13,2.87,2.87,0,0,0-1.8.57,3.25,3.25,0,0,0-1.09,1.49,6,6,0,0,0-.34,2.1,4.89,4.89,0,0,0,.84,3A2.81,2.81,0,0,0,376.27,289.67Z"/><path class="cls-6" d="M383.48,290.33q0-8.48,0-9.63h.9l.07,1.9a4.46,4.46,0,0,1,1.32-1.41,2.92,2.92,0,0,1,1.67-.54,5.27,5.27,0,0,1,.77.06l-.08.91a4.06,4.06,0,0,0-.67-.05,2.61,2.61,0,0,0-2.05,1,3.38,3.38,0,0,0-.83,2.28v5.53Z"/><path class="cls-6" d="M390.48,290.33q0-8.48,0-9.63h.9l.07,1.9a4.46,4.46,0,0,1,1.32-1.41,2.92,2.92,0,0,1,1.67-.54,5.27,5.27,0,0,1,.77.06l-.08.91a4.06,4.06,0,0,0-.67-.05,2.6,2.6,0,0,0-2.05,1,3.38,3.38,0,0,0-.83,2.28v5.53Z"/><path class="cls-6" d="M401.2,290.54A4,4,0,0,1,398,289.2a5.29,5.29,0,0,1-1.17-3.62A5.53,5.53,0,0,1,398,282a3.78,3.78,0,0,1,3-1.45,3.39,3.39,0,0,1,2.72,1.21,4.86,4.86,0,0,1,1,3.25c0,.05,0,.16,0,.32s0,.27,0,.34H398a4.61,4.61,0,0,0,.9,2.94,2.84,2.84,0,0,0,2.32,1.09,5.44,5.44,0,0,0,1.63-.22,8.58,8.58,0,0,0,1.45-.62l.19.82A6.17,6.17,0,0,1,401.2,290.54Zm-3.15-5.77h5.48a3.83,3.83,0,0,0-.69-2.47,2.32,2.32,0,0,0-1.91-.86,2.45,2.45,0,0,0-2,.91A4.32,4.32,0,0,0,398.05,284.77Z"/><path class="cls-6" d="M411.64,290.54a4.27,4.27,0,0,1-2.43-.69,4.2,4.2,0,0,1-1.53-1.79,5.87,5.87,0,0,1-.5-2.46,6.24,6.24,0,0,1,.3-2,5.23,5.23,0,0,1,.85-1.62,3.84,3.84,0,0,1,1.41-1.11,4.47,4.47,0,0,1,1.93-.41,5.35,5.35,0,0,1,1.38.18,3,3,0,0,1,1,.44l-.34.82a4.3,4.3,0,0,0-2.14-.51,2.85,2.85,0,0,0-2.38,1.14,4.81,4.81,0,0,0-.88,3,4.57,4.57,0,0,0,.88,2.91,2.87,2.87,0,0,0,2.39,1.11,5.71,5.71,0,0,0,2.27-.53l.17.78a3.08,3.08,0,0,1-1.07.48A5.22,5.22,0,0,1,411.64,290.54Z"/><path class="cls-6" d="M419.54,290.53a2.46,2.46,0,0,1-1.78-.55,2.42,2.42,0,0,1-.56-1.79v-6.7h-1.36l.08-.66,1.3-.12.29-2.21.76-.05v2.24h2.81v.8h-2.81V288a2,2,0,0,0,.33,1.37,1.6,1.6,0,0,0,1.18.35,5.77,5.77,0,0,0,1.35-.2l0,.84A9.1,9.1,0,0,1,419.54,290.53Z"/><path class="cls-6" d="M430.85,290.54a3.28,3.28,0,0,1-2.18-.69,2.42,2.42,0,0,1-.82-2,2.56,2.56,0,0,1,.33-1.31,2.45,2.45,0,0,1,.94-.91,5.58,5.58,0,0,1,1.42-.54,11.56,11.56,0,0,1,1.85-.27l1.67-.11v-1.07a2.41,2.41,0,0,0-.5-1.67,2.09,2.09,0,0,0-1.62-.56,5.83,5.83,0,0,0-2.86.73l-.16-.38q-.13-.29-.18-.45a5.08,5.08,0,0,1,1.42-.59,6.59,6.59,0,0,1,1.72-.24,3.47,3.47,0,0,1,2.49.74,3.64,3.64,0,0,1,.76,2.63v6.43h-.85q0-.2-.13-.8t-.08-.62A3.68,3.68,0,0,1,430.85,290.54Zm0-.87a3.22,3.22,0,0,0,2-.66,3.1,3.1,0,0,0,1.15-1.84v-1.64l-1.28.11a7.48,7.48,0,0,0-3,.7,1.72,1.72,0,0,0-.84,1.58,1.61,1.61,0,0,0,.53,1.32A2.15,2.15,0,0,0,430.89,289.67Z"/><path class="cls-6" d="M442.48,290.54a4.27,4.27,0,0,1-2.43-.69,4.2,4.2,0,0,1-1.53-1.79,5.87,5.87,0,0,1-.5-2.46,6.24,6.24,0,0,1,.3-2,5.23,5.23,0,0,1,.85-1.62,3.84,3.84,0,0,1,1.41-1.11,4.47,4.47,0,0,1,1.93-.41,5.35,5.35,0,0,1,1.38.18,3,3,0,0,1,1,.44l-.34.82a4.3,4.3,0,0,0-2.14-.51,2.85,2.85,0,0,0-2.38,1.14,4.81,4.81,0,0,0-.88,3,4.57,4.57,0,0,0,.88,2.91,2.87,2.87,0,0,0,2.39,1.11,5.71,5.71,0,0,0,2.27-.53l.17.78a3.08,3.08,0,0,1-1.07.48A5.22,5.22,0,0,1,442.48,290.54Z"/><path class="cls-6" d="M450.38,290.53a2.46,2.46,0,0,1-1.78-.55,2.42,2.42,0,0,1-.56-1.79v-6.7h-1.36l.08-.66,1.3-.12.29-2.21.76-.05v2.24h2.81v.8h-2.81V288a2,2,0,0,0,.33,1.37,1.6,1.6,0,0,0,1.18.35,5.77,5.77,0,0,0,1.35-.2l0,.84A9.11,9.11,0,0,1,450.38,290.53Z"/><path class="cls-6" d="M454.44,278.73v-1.48h1.09v1.48Zm0,11.6V280.7h1.1v9.63Z"/><path class="cls-6" d="M462.87,290.54a4.08,4.08,0,0,1-2.31-.66,4.22,4.22,0,0,1-1.52-1.79,6,6,0,0,1-.52-2.55,6.29,6.29,0,0,1,.3-2,4.77,4.77,0,0,1,.87-1.59,3.92,3.92,0,0,1,1.4-1.05,4.4,4.4,0,0,1,1.85-.38,4,4,0,0,1,3.84,2.45,6.23,6.23,0,0,1,.5,2.55,6.16,6.16,0,0,1-.51,2.57,4.13,4.13,0,0,1-1.52,1.79A4.23,4.23,0,0,1,462.87,290.54Zm.08-.87a2.83,2.83,0,0,0,1.78-.56,3.18,3.18,0,0,0,1.05-1.47,6.2,6.2,0,0,0,.33-2.1,5.14,5.14,0,0,0-.79-3,2.74,2.74,0,0,0-2.41-1.13,2.88,2.88,0,0,0-1.8.57,3.26,3.26,0,0,0-1.08,1.49,6,6,0,0,0-.34,2.1,4.88,4.88,0,0,0,.84,3A2.81,2.81,0,0,0,462.95,289.67Z"/><path class="cls-6" d="M470.14,290.33V280.7h.95l.15,1.49a3.6,3.6,0,0,1,1.39-1.22,4.1,4.1,0,0,1,1.88-.44,3,3,0,0,1,2.44.91,4.44,4.44,0,0,1,.78,2.92v6h-1.1v-6.47a2.9,2.9,0,0,0-.54-1.85,2.1,2.1,0,0,0-1.64-.56,3.33,3.33,0,0,0-2.14.66,2.82,2.82,0,0,0-1,1.71q0,.41,0,.86v5.65Z"/><path class="cls-3" d="M527.15,290.33l3.59-4.88-3.48-4.75h1.21l2.81,4,2.79-4h1.24l-3.47,4.79,3.54,4.84h-1.17l-2.93-4.09-2.92,4.09Z"/><path class="cls-3" d="M544.11,290.33l-2.69-9.63h1.14l2.22,8.6q2.4-7.72,2.68-8.6h1.34q2.63,8.58,2.65,8.58l2.13-8.58h1.13l-2.65,9.63H550.8s-.43-1.34-1.24-4.05-1.28-4.3-1.41-4.77q-.11.47-.8,2.68T546,288.36q-.64,2-.65,2Z"/><path class="cls-3" d="M556.94,290.33q0-8.48,0-9.63h.9l.07,1.9a4.46,4.46,0,0,1,1.32-1.41,2.92,2.92,0,0,1,1.67-.54,5.27,5.27,0,0,1,.77.06l-.08.91a4.06,4.06,0,0,0-.67-.05,2.6,2.6,0,0,0-2.05,1,3.38,3.38,0,0,0-.83,2.28v5.53Z"/><path class="cls-3" d="M567.67,290.54a4.09,4.09,0,0,1-2.31-.66,4.22,4.22,0,0,1-1.52-1.79,6,6,0,0,1-.52-2.55,6.31,6.31,0,0,1,.3-2,4.79,4.79,0,0,1,.87-1.59,3.92,3.92,0,0,1,1.4-1.05,4.41,4.41,0,0,1,1.86-.38,4,4,0,0,1,3.84,2.45,6.24,6.24,0,0,1,.5,2.55,6.16,6.16,0,0,1-.51,2.57,4.13,4.13,0,0,1-1.52,1.79A4.23,4.23,0,0,1,567.67,290.54Zm.08-.87a2.83,2.83,0,0,0,1.78-.56,3.17,3.17,0,0,0,1.05-1.47,6.18,6.18,0,0,0,.33-2.1,5.14,5.14,0,0,0-.79-3,2.74,2.74,0,0,0-2.41-1.13,2.87,2.87,0,0,0-1.8.57,3.26,3.26,0,0,0-1.09,1.49,6,6,0,0,0-.34,2.1,4.89,4.89,0,0,0,.84,3A2.81,2.81,0,0,0,567.75,289.67Z"/><path class="cls-3" d="M574.94,290.33V280.7h.95l.15,1.49a3.6,3.6,0,0,1,1.39-1.22,4.1,4.1,0,0,1,1.88-.44,3,3,0,0,1,2.44.91,4.44,4.44,0,0,1,.78,2.92v6h-1.1v-6.47a2.9,2.9,0,0,0-.54-1.85,2.1,2.1,0,0,0-1.64-.56,3.33,3.33,0,0,0-2.14.66,2.82,2.82,0,0,0-1,1.71q0,.41,0,.86v5.65Z"/><path class="cls-3" d="M587.27,294.8l-.13-1h2a5.39,5.39,0,0,0,1.2-.12,3.55,3.55,0,0,0,.87-.31,1.8,1.8,0,0,0,.61-.53,3.31,3.31,0,0,0,.39-.67,3.5,3.5,0,0,0,.21-.87,9.59,9.59,0,0,0,.09-1q0-.44,0-1.12,0,.1,0,0l0-.61a4.12,4.12,0,0,1-1.31,1.29,3.53,3.53,0,0,1-1.85.45,3.9,3.9,0,0,1-1.57-.31,3.4,3.4,0,0,1-1.16-.8,4.69,4.69,0,0,1-.76-1.12,5.44,5.44,0,0,1-.44-1.26,6,6,0,0,1-.13-1.24,8.11,8.11,0,0,1,.13-1.47,5.44,5.44,0,0,1,.44-1.37,4.25,4.25,0,0,1,.79-1.16,3.43,3.43,0,0,1,1.22-.78,4.57,4.57,0,0,1,1.69-.29,3.5,3.5,0,0,1,1.63.36,4,4,0,0,1,1.31,1.16l.11-1.35h1v8.93c0,.39,0,.7,0,.94a8.62,8.62,0,0,1-.11,1,4.35,4.35,0,0,1-.25,1,4.69,4.69,0,0,1-.5.87,2.54,2.54,0,0,1-.8.75,4.93,4.93,0,0,1-1.21.47,6.54,6.54,0,0,1-1.67.19Zm2.22-5.36a3.11,3.11,0,0,0,1.16-.21,2.49,2.49,0,0,0,.86-.54,3.12,3.12,0,0,0,.57-.8,3.66,3.66,0,0,0,.33-.94,5.16,5.16,0,0,0,.1-1v-1a4.85,4.85,0,0,0-.17-1.29,3.76,3.76,0,0,0-.51-1.12,2.4,2.4,0,0,0-1-.81,3.14,3.14,0,0,0-1.41-.3,2.69,2.69,0,0,0-1.17.25,2.44,2.44,0,0,0-.86.66,3.88,3.88,0,0,0-.56,1,5.1,5.1,0,0,0-.32,1.13,7.57,7.57,0,0,0-.09,1.18,6.27,6.27,0,0,0,.08,1,4.54,4.54,0,0,0,.3,1,3.23,3.23,0,0,0,.55.9,2.48,2.48,0,0,0,.88.62A3,3,0,0,0,589.49,289.44Z"/><path class="cls-3" d="M601.62,290.33q0-8.48,0-9.63h.9l.07,1.9a4.46,4.46,0,0,1,1.32-1.41,2.92,2.92,0,0,1,1.67-.54,5.27,5.27,0,0,1,.77.06l-.08.91a4.06,4.06,0,0,0-.67-.05,2.6,2.6,0,0,0-2.05,1,3.38,3.38,0,0,0-.83,2.28v5.53Z"/><path class="cls-3" d="M612.35,290.54a4.08,4.08,0,0,1-2.31-.66,4.22,4.22,0,0,1-1.52-1.79,6,6,0,0,1-.52-2.55,6.29,6.29,0,0,1,.3-2,4.77,4.77,0,0,1,.87-1.59,3.92,3.92,0,0,1,1.4-1.05,4.4,4.4,0,0,1,1.85-.38,4,4,0,0,1,3.84,2.45,6.23,6.23,0,0,1,.5,2.55,6.16,6.16,0,0,1-.51,2.57,4.13,4.13,0,0,1-1.52,1.79A4.23,4.23,0,0,1,612.35,290.54Zm.08-.87a2.83,2.83,0,0,0,1.78-.56,3.18,3.18,0,0,0,1.05-1.47,6.2,6.2,0,0,0,.33-2.1,5.14,5.14,0,0,0-.79-3,2.74,2.74,0,0,0-2.41-1.13,2.88,2.88,0,0,0-1.8.57,3.26,3.26,0,0,0-1.08,1.49,6,6,0,0,0-.34,2.1,4.88,4.88,0,0,0,.84,3A2.81,2.81,0,0,0,612.43,289.67Z"/><path class="cls-3" d="M623.2,290.57a5.45,5.45,0,0,1-1.4-.17,4.06,4.06,0,0,1-1.2-.54,2.49,2.49,0,0,1-.87-1,3.6,3.6,0,0,1-.32-1.57V280.7h1.09v6.58a2.85,2.85,0,0,0,.21,1.16,1.55,1.55,0,0,0,.61.72,2.7,2.7,0,0,0,.84.34,5,5,0,0,0,1,.1,4.75,4.75,0,0,0,1-.1,2.62,2.62,0,0,0,.84-.35,1.57,1.57,0,0,0,.59-.72,2.85,2.85,0,0,0,.21-1.15V280.7H627v6.56a3.84,3.84,0,0,1-.21,1.32,2.69,2.69,0,0,1-.56.95,2.92,2.92,0,0,1-.85.61,4,4,0,0,1-1,.34A6.17,6.17,0,0,1,623.2,290.57Z"/><path class="cls-3" d="M632.77,290.53A2.46,2.46,0,0,1,631,290a2.42,2.42,0,0,1-.56-1.79v-6.7h-1.36l.08-.66,1.3-.12.29-2.21.76-.05v2.24h2.81v.8h-2.81V288a2,2,0,0,0,.33,1.37,1.6,1.6,0,0,0,1.18.35,5.77,5.77,0,0,0,1.35-.2l0,.84A9.11,9.11,0,0,1,632.77,290.53Z"/><path class="cls-3" d="M640.62,290.54a4,4,0,0,1-3.17-1.34,5.3,5.3,0,0,1-1.17-3.62,5.53,5.53,0,0,1,1.15-3.61,3.78,3.78,0,0,1,3-1.45,3.39,3.39,0,0,1,2.72,1.21,4.86,4.86,0,0,1,1,3.25c0,.05,0,.16,0,.32s0,.27,0,.34h-6.71a4.61,4.61,0,0,0,.9,2.94,2.84,2.84,0,0,0,2.32,1.09,5.44,5.44,0,0,0,1.63-.22,8.59,8.59,0,0,0,1.45-.62l.18.82A6.17,6.17,0,0,1,640.62,290.54Zm-3.15-5.77H643a3.83,3.83,0,0,0-.69-2.47,2.32,2.32,0,0,0-1.91-.86,2.45,2.45,0,0,0-2,.91A4.32,4.32,0,0,0,637.48,284.77Z"/><path class="cls-6" d="M251.9,566.1a5.69,5.69,0,0,1-3.23-.91,5.6,5.6,0,0,1-2-2.38,7.83,7.83,0,0,1-.67-3.28,8.32,8.32,0,0,1,.4-2.6,7,7,0,0,1,1.13-2.16,5.13,5.13,0,0,1,1.89-1.48,6,6,0,0,1,2.57-.54,7.11,7.11,0,0,1,1.85.25,4,4,0,0,1,1.37.59l-.46,1.09a5.73,5.73,0,0,0-2.86-.68,3.8,3.8,0,0,0-3.18,1.52,6.41,6.41,0,0,0-1.17,4,6.1,6.1,0,0,0,1.17,3.88,3.83,3.83,0,0,0,3.18,1.48,7.62,7.62,0,0,0,3-.7l.22,1a4.11,4.11,0,0,1-1.43.64A7,7,0,0,1,251.9,566.1Z"/><path class="cls-6" d="M264,566.1a5.45,5.45,0,0,1-3.08-.88,5.63,5.63,0,0,1-2-2.38,8,8,0,0,1-.7-3.4,8.42,8.42,0,0,1,.4-2.65,6.39,6.39,0,0,1,1.15-2.12,5.23,5.23,0,0,1,1.86-1.41,5.87,5.87,0,0,1,2.47-.51,5.38,5.38,0,0,1,5.12,3.26,8.32,8.32,0,0,1,.66,3.4,8.21,8.21,0,0,1-.68,3.42,5.51,5.51,0,0,1-2,2.38A5.63,5.63,0,0,1,264,566.1Zm.11-1.16a3.77,3.77,0,0,0,2.37-.74,4.22,4.22,0,0,0,1.41-2,8.23,8.23,0,0,0,.44-2.8,6.85,6.85,0,0,0-1.05-4,3.65,3.65,0,0,0-3.21-1.51,3.83,3.83,0,0,0-2.4.76,4.34,4.34,0,0,0-1.45,2,8,8,0,0,0-.46,2.81,6.52,6.52,0,0,0,1.12,3.94A3.75,3.75,0,0,0,264.09,564.94Z"/><path class="cls-6" d="M273.7,565.82q0-11.31,0-12.84h1.2l.09,2.53a6,6,0,0,1,1.76-1.87,3.9,3.9,0,0,1,2.23-.73,7,7,0,0,1,1,.08l-.11,1.21a5.42,5.42,0,0,0-.89-.07,3.47,3.47,0,0,0-2.74,1.28,4.5,4.5,0,0,0-1.11,3v7.37Z"/><path class="cls-6" d="M283,565.82q0-11.31,0-12.84h1.2l.09,2.53a6,6,0,0,1,1.76-1.87,3.9,3.9,0,0,1,2.23-.73,7,7,0,0,1,1,.08l-.11,1.21a5.42,5.42,0,0,0-.89-.07,3.47,3.47,0,0,0-2.74,1.28,4.5,4.5,0,0,0-1.11,3v7.37Z"/><path class="cls-6" d="M297.33,566.1a5.34,5.34,0,0,1-4.22-1.78,7.06,7.06,0,0,1-1.56-4.83,7.37,7.37,0,0,1,1.53-4.82,5,5,0,0,1,4-1.93,4.53,4.53,0,0,1,3.63,1.62,6.48,6.48,0,0,1,1.37,4.34q0,.11,0,.43t0,.45h-8.94a6.15,6.15,0,0,0,1.2,3.92,3.78,3.78,0,0,0,3.09,1.45,7.25,7.25,0,0,0,2.18-.29,11.45,11.45,0,0,0,1.93-.83l.25,1.09A8.22,8.22,0,0,1,297.33,566.1Zm-4.2-7.7h7.31a5.11,5.11,0,0,0-.93-3.29A3.1,3.1,0,0,0,297,554a3.27,3.27,0,0,0-2.65,1.22A5.76,5.76,0,0,0,293.13,558.4Z"/><path class="cls-6" d="M311.25,566.1a5.69,5.69,0,0,1-3.23-.91,5.6,5.6,0,0,1-2-2.38,7.83,7.83,0,0,1-.67-3.28,8.32,8.32,0,0,1,.4-2.6,7,7,0,0,1,1.13-2.16,5.13,5.13,0,0,1,1.89-1.48,6,6,0,0,1,2.57-.54,7.11,7.11,0,0,1,1.85.25,4,4,0,0,1,1.37.59l-.46,1.09a5.73,5.73,0,0,0-2.86-.68A3.8,3.8,0,0,0,308,555.5a6.41,6.41,0,0,0-1.17,4,6.1,6.1,0,0,0,1.17,3.88,3.83,3.83,0,0,0,3.18,1.48,7.62,7.62,0,0,0,3-.7l.22,1a4.11,4.11,0,0,1-1.43.64A7,7,0,0,1,311.25,566.1Z"/><path class="cls-6" d="M321.79,566.09a3.29,3.29,0,0,1-2.37-.73,3.23,3.23,0,0,1-.75-2.38V554h-1.82l.11-.88,1.73-.16.39-2.94,1-.07v3h3.75V554H320.1v8.63a2.7,2.7,0,0,0,.45,1.82,2.14,2.14,0,0,0,1.57.46,7.7,7.7,0,0,0,1.8-.27l.06,1.13A12.13,12.13,0,0,1,321.79,566.09Z"/><path class="cls-7" d="M393.6,79.55V224.32H54.17V79.55H393.6m1-1H53.17V225.32H394.6V78.55Z"/><path class="cls-5" d="M168.6,134.54v-21.8h6.21q1.19,0,2.06,0a16.34,16.34,0,0,1,1.78.19,8,8,0,0,1,1.55.39,5.42,5.42,0,0,1,1.22.65,3.31,3.31,0,0,1,.93,1,4.91,4.91,0,0,1,.55,1.38,7.71,7.71,0,0,1,.2,1.83,6,6,0,0,1-1,3.44,4.93,4.93,0,0,1-3,1.95q.88,1.8,1.32,2.74l3.57,8.19h-2.18l-3.08-7.46q-.31-.73-1.38-3.16-.29,0-2.17,0l-4.72-.09v10.66Zm7.4-12.13q2.92,0,4.07-1a4,4,0,0,0,1.16-3.14,3.89,3.89,0,0,0-1-2.92,5,5,0,0,0-3.57-1h-6.14v8.06Q173.92,122.41,176,122.41Z"/><path class="cls-5" d="M194.12,134.89a6.67,6.67,0,0,1-5.28-2.23,8.82,8.82,0,0,1-2-6,9.22,9.22,0,0,1,1.91-6,6.3,6.3,0,0,1,4.94-2.42,5.66,5.66,0,0,1,4.54,2,8.1,8.1,0,0,1,1.71,5.42c0,.09,0,.27,0,.53s0,.46,0,.56H188.8a7.68,7.68,0,0,0,1.49,4.9,4.73,4.73,0,0,0,3.87,1.81,9.06,9.06,0,0,0,2.72-.37,14.3,14.3,0,0,0,2.42-1l.31,1.36A10.28,10.28,0,0,1,194.12,134.89Zm-5.24-9.62H198a6.39,6.39,0,0,0-1.16-4.11,3.87,3.87,0,0,0-3.18-1.43,4.09,4.09,0,0,0-3.31,1.52A7.2,7.2,0,0,0,188.88,125.27Z"/><path class="cls-5" d="M214.77,141.69v-7.34q0-1.23.07-2.23a5.44,5.44,0,0,1-2.32,2.07,6.77,6.77,0,0,1-2.94.7,6.23,6.23,0,0,1-3.65-1.07,6.43,6.43,0,0,1-2.29-2.89,10.87,10.87,0,0,1-.75-4.18,12,12,0,0,1,.75-4.44,6.54,6.54,0,0,1,2.31-3,6.3,6.3,0,0,1,3.74-1.11,6.37,6.37,0,0,1,5.14,2.71l.12-2.42h1.63v23.1Zm-5.19-8.38q5.07,0,5.14-6.46a13.88,13.88,0,0,0-.27-2.9,7.08,7.08,0,0,0-.86-2.22,3.85,3.85,0,0,0-1.6-1.46,5.39,5.39,0,0,0-2.43-.51,4.28,4.28,0,0,0-1.87.4,3.8,3.8,0,0,0-1.35,1.05,6.12,6.12,0,0,0-.89,1.55,8.35,8.35,0,0,0-.51,1.84,12.85,12.85,0,0,0-.15,2,12,12,0,0,0,.25,2.52,7.82,7.82,0,0,0,.78,2.13,3.92,3.92,0,0,0,1.49,1.53A4.4,4.4,0,0,0,209.59,133.31Z"/><path class="cls-5" d="M226.87,134.94a9,9,0,0,1-2.34-.29,6.76,6.76,0,0,1-2-.89,4.15,4.15,0,0,1-1.46-1.72,6,6,0,0,1-.54-2.62V118.49h1.82v11a4.75,4.75,0,0,0,.35,1.93,2.58,2.58,0,0,0,1,1.19,4.5,4.5,0,0,0,1.41.56,8.33,8.33,0,0,0,1.74.16,7.91,7.91,0,0,0,1.73-.17,4.36,4.36,0,0,0,1.39-.58,2.62,2.62,0,0,0,1-1.19,4.76,4.76,0,0,0,.34-1.91v-11h1.82v10.93a6.4,6.4,0,0,1-.35,2.2,4.48,4.48,0,0,1-.94,1.58,4.88,4.88,0,0,1-1.41,1,6.64,6.64,0,0,1-1.7.56A10.3,10.3,0,0,1,226.87,134.94Z"/><path class="cls-5" d="M243.6,134.89a6.67,6.67,0,0,1-5.28-2.23,8.82,8.82,0,0,1-2-6,9.22,9.22,0,0,1,1.91-6,6.3,6.3,0,0,1,4.94-2.42,5.66,5.66,0,0,1,4.54,2,8.1,8.1,0,0,1,1.71,5.42c0,.09,0,.27,0,.53s0,.46,0,.56H238.29a7.68,7.68,0,0,0,1.49,4.9,4.73,4.73,0,0,0,3.87,1.81,9.06,9.06,0,0,0,2.72-.37,14.3,14.3,0,0,0,2.42-1l.31,1.36A10.28,10.28,0,0,1,243.6,134.89Zm-5.24-9.62h9.14a6.39,6.39,0,0,0-1.16-4.11,3.87,3.87,0,0,0-3.18-1.43,4.09,4.09,0,0,0-3.31,1.52A7.2,7.2,0,0,0,238.36,125.27Z"/><path class="cls-5" d="M257.8,134.91a10.79,10.79,0,0,1-2.92-.38,7.61,7.61,0,0,1-2.15-.91l.26-1.52a10,10,0,0,0,4.63,1.26q4,0,4.12-2.94a2.44,2.44,0,0,0-.8-1.93,9.7,9.7,0,0,0-3.2-1.46l-1.39-.48q-3.76-1.14-3.79-4.06a3.87,3.87,0,0,1,1.49-3,5.91,5.91,0,0,1,4-1.3,11.52,11.52,0,0,1,4.76,1l-.62,1.35a12,12,0,0,0-4.19-.85,4.24,4.24,0,0,0-2.67.76,2.47,2.47,0,0,0-1,2.05,2.13,2.13,0,0,0,.64,1.66,6.71,6.71,0,0,0,2.53,1.11l.75.26.61.22a8.21,8.21,0,0,1,3.54,1.84,4,4,0,0,1,1,2.89,4,4,0,0,1-1.57,3.27A6.57,6.57,0,0,1,257.8,134.91Z"/><path class="cls-5" d="M271.46,134.88a4.11,4.11,0,0,1-3-.92,4,4,0,0,1-.94-3V119.82H265.3l.13-1.1,2.17-.21.48-3.68,1.27-.09v3.74H274v1.33h-4.69V130.6a3.38,3.38,0,0,0,.56,2.28,2.67,2.67,0,0,0,2,.58,9.62,9.62,0,0,0,2.26-.34l.07,1.41A15.17,15.17,0,0,1,271.46,134.88Z"/><path class="cls-5" d="M116.64,180.88a11.49,11.49,0,0,1-3.67-.56,8.93,8.93,0,0,1-2.89-1.58,9.45,9.45,0,0,1-2.06-2.41,11.2,11.2,0,0,1-1.26-3.08,14.71,14.71,0,0,1-.42-3.55,13.24,13.24,0,0,1,1.23-5.84,9.42,9.42,0,0,1,3.67-4,10.93,10.93,0,0,1,5.78-1.48,12.51,12.51,0,0,1,6.5,1.68l-.83,1.51a11.39,11.39,0,0,0-2.72-1.18,10.4,10.4,0,0,0-2.94-.45,9.13,9.13,0,0,0-3.82.76,7.05,7.05,0,0,0-2.72,2.1,9.55,9.55,0,0,0-1.58,3.08,12.92,12.92,0,0,0-.53,3.79,13.35,13.35,0,0,0,.54,3.94,8.54,8.54,0,0,0,1.63,3,7.08,7.08,0,0,0,2.78,2,10.28,10.28,0,0,0,3.93.7,13.86,13.86,0,0,0,5.07-1.1v-7h-5.41l.12-1.63h7v9.61a13.93,13.93,0,0,1-3.46,1.28A19.29,19.29,0,0,1,116.64,180.88Z"/><path class="cls-5" d="M128.79,180.54v-21.8h12.14l-.07,1.55h-10.2v8.2h9.7v1.6h-9.7V179h10.52l-.16,1.57Z"/><path class="cls-5" d="M149.83,180.54V160.36H143v-1.61h15.62v1.61h-6.86v20.19Z"/><path class="cls-5" d="M173,183.09l10.27-24.73h1.66l-10.28,24.73Z"/><path class="cls-5" d="M194.89,180.89a6.67,6.67,0,0,1-5.28-2.23,8.83,8.83,0,0,1-2-6,9.21,9.21,0,0,1,1.91-6,6.29,6.29,0,0,1,4.94-2.42,5.66,5.66,0,0,1,4.54,2,8.1,8.1,0,0,1,1.71,5.42c0,.09,0,.27,0,.54s0,.46,0,.56H189.57a7.68,7.68,0,0,0,1.49,4.9,4.73,4.73,0,0,0,3.87,1.81,9.06,9.06,0,0,0,2.72-.37,14.31,14.31,0,0,0,2.42-1l.31,1.36A10.28,10.28,0,0,1,194.89,180.89Zm-5.24-9.62h9.14a6.38,6.38,0,0,0-1.16-4.11,3.87,3.87,0,0,0-3.18-1.43,4.09,4.09,0,0,0-3.31,1.52A7.2,7.2,0,0,0,189.64,171.27Z"/><path class="cls-5" d="M202.78,180.54l6-8.13-5.8-7.92h2l4.69,6.62,4.66-6.62h2.07l-5.79,8,5.9,8.07h-1.95l-4.88-6.81-4.86,6.81Z"/><path class="cls-5" d="M219.22,187.69v-23.2h1.63l.16,2.29a8.76,8.76,0,0,1,2.29-1.93,5.52,5.52,0,0,1,2.72-.64,6,6,0,0,1,5.13,2.28,10.19,10.19,0,0,1,1.71,6.23,9.25,9.25,0,0,1-1.8,5.9,5.87,5.87,0,0,1-4.88,2.29,6.28,6.28,0,0,1-3-.75,6,6,0,0,1-2.23-2q.07,1.8.07,3.54v5.83Zm6.84-8.29a4.1,4.1,0,0,0,2.21-.6,4.47,4.47,0,0,0,1.54-1.6,8.28,8.28,0,0,0,.86-2.18,10.43,10.43,0,0,0,.29-2.45,10.62,10.62,0,0,0-.28-2.46,8.41,8.41,0,0,0-.84-2.18,4.36,4.36,0,0,0-1.54-1.6,4.21,4.21,0,0,0-2.24-.6,5.23,5.23,0,0,0-2.35.49,3.84,3.84,0,0,0-1.57,1.4,6.47,6.47,0,0,0-.84,2.07,11.77,11.77,0,0,0-.26,2.61,15,15,0,0,0,.25,2.92,7.19,7.19,0,0,0,.81,2.22,3.65,3.65,0,0,0,1.56,1.47A5.36,5.36,0,0,0,226.06,179.4Z"/><path class="cls-5" d="M236.46,180.54q0-14.14,0-16.05h1.49l.12,3.16a7.43,7.43,0,0,1,2.2-2.34,4.87,4.87,0,0,1,2.78-.91,8.78,8.78,0,0,1,1.29.1l-.13,1.51a6.77,6.77,0,0,0-1.11-.09,4.34,4.34,0,0,0-3.42,1.6,5.63,5.63,0,0,0-1.38,3.8v9.21Z"/><path class="cls-5" d="M253.13,180.89a6.67,6.67,0,0,1-5.28-2.23,8.82,8.82,0,0,1-2-6,9.22,9.22,0,0,1,1.91-6,6.3,6.3,0,0,1,4.95-2.42,5.66,5.66,0,0,1,4.54,2,8.1,8.1,0,0,1,1.71,5.42c0,.09,0,.27,0,.54s0,.46,0,.56H247.81a7.68,7.68,0,0,0,1.49,4.9,4.73,4.73,0,0,0,3.87,1.81,9.06,9.06,0,0,0,2.72-.37,14.32,14.32,0,0,0,2.42-1l.31,1.36A10.28,10.28,0,0,1,253.13,180.89Zm-5.24-9.62H257a6.38,6.38,0,0,0-1.16-4.11,3.86,3.86,0,0,0-3.18-1.43,4.09,4.09,0,0,0-3.31,1.52A7.2,7.2,0,0,0,247.89,171.27Z"/><path class="cls-5" d="M267.32,180.91a10.78,10.78,0,0,1-2.91-.38,7.63,7.63,0,0,1-2.15-.91l.26-1.52a10,10,0,0,0,4.63,1.26q4,0,4.12-2.94a2.45,2.45,0,0,0-.8-1.93,9.74,9.74,0,0,0-3.2-1.46l-1.39-.48q-3.76-1.14-3.79-4.06a3.87,3.87,0,0,1,1.49-3,5.9,5.9,0,0,1,4-1.3,11.53,11.53,0,0,1,4.76,1l-.62,1.35a12,12,0,0,0-4.19-.85,4.23,4.23,0,0,0-2.67.76,2.47,2.47,0,0,0-1,2.05,2.13,2.13,0,0,0,.64,1.66,6.68,6.68,0,0,0,2.53,1.11l.76.26.61.22a8.23,8.23,0,0,1,3.54,1.84,4,4,0,0,1,1,2.89,4,4,0,0,1-1.57,3.27A6.58,6.58,0,0,1,267.32,180.91Z"/><path class="cls-5" d="M281.15,180.91a10.78,10.78,0,0,1-2.91-.38,7.63,7.63,0,0,1-2.15-.91l.26-1.52a10,10,0,0,0,4.63,1.26q4,0,4.12-2.94a2.45,2.45,0,0,0-.8-1.93,9.74,9.74,0,0,0-3.2-1.46l-1.39-.48q-3.76-1.14-3.79-4.06a3.87,3.87,0,0,1,1.49-3,5.9,5.9,0,0,1,4-1.3,11.53,11.53,0,0,1,4.76,1l-.62,1.35a12,12,0,0,0-4.19-.85,4.23,4.23,0,0,0-2.67.76,2.47,2.47,0,0,0-1,2.05,2.13,2.13,0,0,0,.64,1.66,6.68,6.68,0,0,0,2.53,1.11l.76.26.61.22a8.23,8.23,0,0,1,3.54,1.84,4,4,0,0,1,1,2.89,4,4,0,0,1-1.57,3.27A6.58,6.58,0,0,1,281.15,180.91Z"/><path class="cls-5" d="M290.48,161.21v-2.46h1.82v2.46Zm0,19.34V164.49h1.83v16.05Z"/><path class="cls-5" d="M303.33,180.89a6.82,6.82,0,0,1-3.85-1.1,7,7,0,0,1-2.53-3,10,10,0,0,1-.87-4.25,10.55,10.55,0,0,1,.5-3.32,8,8,0,0,1,1.44-2.65,6.56,6.56,0,0,1,2.33-1.76,7.35,7.35,0,0,1,3.09-.64,6.72,6.72,0,0,1,6.39,4.08,10.41,10.41,0,0,1,.83,4.25,10.26,10.26,0,0,1-.85,4.28,6.89,6.89,0,0,1-2.54,3A7,7,0,0,1,303.33,180.89Zm.13-1.45a4.71,4.71,0,0,0,3-.93,5.26,5.26,0,0,0,1.76-2.45,10.27,10.27,0,0,0,.55-3.5,8.56,8.56,0,0,0-1.32-5,4.56,4.56,0,0,0-4-1.89,4.8,4.8,0,0,0-3,.94,5.43,5.43,0,0,0-1.81,2.48,10,10,0,0,0-.57,3.51,8.15,8.15,0,0,0,1.4,4.92A4.69,4.69,0,0,0,303.46,179.44Z"/><path class="cls-5" d="M314.24,180.54V164.49h1.58l.25,2.48a6,6,0,0,1,2.32-2,6.84,6.84,0,0,1,3.14-.74,5.07,5.07,0,0,1,4.07,1.52q1.3,1.52,1.3,4.86v10h-1.83V169.76a4.84,4.84,0,0,0-.91-3.08,3.51,3.51,0,0,0-2.74-.94,5.56,5.56,0,0,0-3.57,1.1,4.7,4.7,0,0,0-1.74,2.84q-.06.69-.06,1.44v9.42Z"/><path class="cls-5" d="M335.81,180.91a10.79,10.79,0,0,1-2.92-.38,7.61,7.61,0,0,1-2.15-.91l.26-1.52a10,10,0,0,0,4.63,1.26q4,0,4.12-2.94a2.44,2.44,0,0,0-.8-1.93,9.7,9.7,0,0,0-3.2-1.46l-1.39-.48q-3.76-1.14-3.79-4.06a3.86,3.86,0,0,1,1.49-3,5.9,5.9,0,0,1,4-1.3,11.52,11.52,0,0,1,4.76,1l-.62,1.35a12,12,0,0,0-4.19-.85,4.24,4.24,0,0,0-2.67.76,2.47,2.47,0,0,0-1,2.05,2.13,2.13,0,0,0,.64,1.66,6.69,6.69,0,0,0,2.53,1.11l.75.26.61.22a8.22,8.22,0,0,1,3.54,1.84,4,4,0,0,1,1,2.89,4,4,0,0,1-1.57,3.27A6.57,6.57,0,0,1,335.81,180.91Z"/><path class="cls-7" d="M1171.44,727.05V889.8H905.15V727.05h266.29m1-1H904.15V890.8h268.29V726.05Z"/><path class="cls-5" d="M1006.78,800.37a18.46,18.46,0,0,1-4.89-.59,13.6,13.6,0,0,1-3.3-1.29l.7-1.33a15.93,15.93,0,0,0,7.65,1.67,5.35,5.35,0,0,0,3.86-1.3,4.86,4.86,0,0,0,1.35-3.68,5.81,5.81,0,0,0-.16-1.48,3.14,3.14,0,0,0-.6-1.15,3.33,3.33,0,0,0-1.28-.92,10.54,10.54,0,0,0-2.15-.64l-3.52-.7a9.66,9.66,0,0,1-4.42-1.85,4.47,4.47,0,0,1-1.47-3.59,5.51,5.51,0,0,1,.59-2.61,4.45,4.45,0,0,1,1.69-1.76,8.46,8.46,0,0,1,2.56-1,15.79,15.79,0,0,1,3.32-.31,15.57,15.57,0,0,1,6.5,1.48l-.48,1.44a11.08,11.08,0,0,0-2.56-.92,14.13,14.13,0,0,0-3.51-.43,8.45,8.45,0,0,0-4.64,1,3.63,3.63,0,0,0-1.55,3.26,2.8,2.8,0,0,0,1,2.23,6.52,6.52,0,0,0,2.9,1.25l3.93.8a14,14,0,0,1,2.48.73,6.7,6.7,0,0,1,1.8,1.1,4.08,4.08,0,0,1,1.16,1.68,6.7,6.7,0,0,1,.38,2.38,5.9,5.9,0,0,1-2,4.78A8,8,0,0,1,1006.78,800.37Z"/><path class="cls-5" d="M1024.06,800.38a6.67,6.67,0,0,1-5.28-2.23,8.82,8.82,0,0,1-2-6,9.22,9.22,0,0,1,1.91-6,6.29,6.29,0,0,1,4.94-2.42,5.66,5.66,0,0,1,4.54,2,8.1,8.1,0,0,1,1.71,5.42c0,.09,0,.27,0,.53s0,.46,0,.56h-11.18a7.69,7.69,0,0,0,1.49,4.9,4.73,4.73,0,0,0,3.87,1.81,9.07,9.07,0,0,0,2.72-.37,14.32,14.32,0,0,0,2.42-1l.31,1.36A10.28,10.28,0,0,1,1024.06,800.38Zm-5.24-9.62H1028a6.38,6.38,0,0,0-1.16-4.11,3.87,3.87,0,0,0-3.18-1.43,4.09,4.09,0,0,0-3.31,1.52A7.2,7.2,0,0,0,1018.82,790.76Z"/><path class="cls-5" d="M1033.57,800V784h1.58l.25,2.47a6,6,0,0,1,2.32-2,6.84,6.84,0,0,1,3.14-.74,5.07,5.07,0,0,1,4.07,1.52q1.3,1.52,1.3,4.86v10h-1.83V789.25a4.84,4.84,0,0,0-.91-3.08,3.5,3.5,0,0,0-2.74-.94,5.56,5.56,0,0,0-3.57,1.1,4.71,4.71,0,0,0-1.74,2.84q-.06.69-.06,1.44V800Z"/><path class="cls-5" d="M1056.51,800.37a6.07,6.07,0,0,1-5-2.23,9.55,9.55,0,0,1-1.79-6.15,9.28,9.28,0,0,1,1.85-6,6,6,0,0,1,4.89-2.31,7.49,7.49,0,0,1,3,.64,4.66,4.66,0,0,1,2.27,2v-8.58l1.76-.16V800H1062l-.26-2.42a5.36,5.36,0,0,1-2.26,2.06A6.62,6.62,0,0,1,1056.51,800.37Zm0-1.44a5.4,5.4,0,0,0,2.39-.5,4.11,4.11,0,0,0,1.64-1.41,6.58,6.58,0,0,0,.92-2.09,10.59,10.59,0,0,0,.3-2.61q0-7.16-5.27-7.16a4.07,4.07,0,0,0-2.2.59,4.26,4.26,0,0,0-1.5,1.6,8.32,8.32,0,0,0-.81,2.18,11.35,11.35,0,0,0-.26,2.48,13.17,13.17,0,0,0,.16,2.12,8.59,8.59,0,0,0,.53,1.88,5.64,5.64,0,0,0,.91,1.53,3.86,3.86,0,0,0,1.36,1A4.4,4.4,0,0,0,1056.47,798.93Z"/><path class="cls-5" d="M1072.46,800.39a10.79,10.79,0,0,1-2.92-.38,7.62,7.62,0,0,1-2.15-.91l.26-1.52a10,10,0,0,0,4.63,1.26q4,0,4.12-2.94a2.44,2.44,0,0,0-.8-1.93,9.72,9.72,0,0,0-3.2-1.46L1071,792q-3.76-1.14-3.79-4.06a3.87,3.87,0,0,1,1.49-3,5.9,5.9,0,0,1,4-1.3,11.52,11.52,0,0,1,4.76,1l-.62,1.35a12,12,0,0,0-4.19-.85,4.24,4.24,0,0,0-2.67.76,2.47,2.47,0,0,0-1,2.05,2.13,2.13,0,0,0,.64,1.66,6.7,6.7,0,0,0,2.53,1.11l.75.26.61.22a8.21,8.21,0,0,1,3.54,1.84,4,4,0,0,1,1,2.89,4,4,0,0,1-1.57,3.27A6.58,6.58,0,0,1,1072.46,800.39Z"/><path class="cls-5" d="M975.6,836v-21.8h6.21q1.19,0,2.06,0a16.36,16.36,0,0,1,1.78.19,7.91,7.91,0,0,1,1.54.39,5.38,5.38,0,0,1,1.22.65,3.31,3.31,0,0,1,.93,1,4.88,4.88,0,0,1,.55,1.38,7.71,7.71,0,0,1,.2,1.83,6,6,0,0,1-1,3.44,4.94,4.94,0,0,1-3,1.95q.88,1.8,1.32,2.74L991,836h-2.18l-3.08-7.46q-.31-.73-1.38-3.16-.29,0-2.17,0l-4.72-.09V836ZM983,823.9q2.92,0,4.07-1a4,4,0,0,0,1.16-3.14,3.89,3.89,0,0,0-1-2.92,5,5,0,0,0-3.57-1h-6.14v8.06Q980.92,823.9,983,823.9Z"/><path class="cls-5" d="M1001.12,836.38a6.67,6.67,0,0,1-5.28-2.23,8.82,8.82,0,0,1-2-6,9.22,9.22,0,0,1,1.91-6,6.3,6.3,0,0,1,4.94-2.42,5.66,5.66,0,0,1,4.54,2,8.1,8.1,0,0,1,1.71,5.42c0,.09,0,.27,0,.54s0,.46,0,.56H995.8a7.68,7.68,0,0,0,1.49,4.9,4.73,4.73,0,0,0,3.87,1.81,9.07,9.07,0,0,0,2.72-.37,14.32,14.32,0,0,0,2.42-1l.31,1.36A10.28,10.28,0,0,1,1001.12,836.38Zm-5.24-9.62H1005a6.38,6.38,0,0,0-1.16-4.11,3.87,3.87,0,0,0-3.18-1.43,4.09,4.09,0,0,0-3.31,1.52A7.2,7.2,0,0,0,995.87,826.76Z"/><path class="cls-5" d="M1015.31,836.39a10.79,10.79,0,0,1-2.92-.38,7.62,7.62,0,0,1-2.15-.91l.26-1.52a10,10,0,0,0,4.63,1.26q4,0,4.12-2.94a2.44,2.44,0,0,0-.8-1.93,9.72,9.72,0,0,0-3.2-1.46l-1.39-.48q-3.76-1.14-3.79-4.06a3.87,3.87,0,0,1,1.49-3,5.9,5.9,0,0,1,4-1.3,11.52,11.52,0,0,1,4.76,1l-.62,1.35a12,12,0,0,0-4.19-.85,4.24,4.24,0,0,0-2.67.76,2.47,2.47,0,0,0-1,2.05,2.13,2.13,0,0,0,.64,1.66,6.7,6.7,0,0,0,2.53,1.11l.75.26.61.22a8.22,8.22,0,0,1,3.54,1.84,4,4,0,0,1,1,2.89,4,4,0,0,1-1.58,3.27A6.57,6.57,0,0,1,1015.31,836.39Z"/><path class="cls-5" d="M1024.45,843.18V820h1.63l.16,2.29a8.74,8.74,0,0,1,2.29-1.93,5.52,5.52,0,0,1,2.72-.64,6,6,0,0,1,5.13,2.28,10.18,10.18,0,0,1,1.71,6.23,9.26,9.26,0,0,1-1.8,5.9,5.87,5.87,0,0,1-4.88,2.29,6.28,6.28,0,0,1-3-.75,6,6,0,0,1-2.23-2q.07,1.8.07,3.54V843Zm6.84-8.29a4.11,4.11,0,0,0,2.21-.6,4.46,4.46,0,0,0,1.54-1.6,8.24,8.24,0,0,0,.86-2.18,10.38,10.38,0,0,0,.29-2.45,10.62,10.62,0,0,0-.28-2.46,8.37,8.37,0,0,0-.84-2.18,4.35,4.35,0,0,0-1.54-1.6,4.21,4.21,0,0,0-2.24-.6,5.22,5.22,0,0,0-2.35.49,3.84,3.84,0,0,0-1.57,1.4,6.49,6.49,0,0,0-.84,2.06,11.77,11.77,0,0,0-.26,2.61,15,15,0,0,0,.25,2.92,7.21,7.21,0,0,0,.81,2.22,3.66,3.66,0,0,0,1.56,1.47A5.36,5.36,0,0,0,1031.29,834.89Z"/><path class="cls-5" d="M1048.18,836.38a6.82,6.82,0,0,1-3.85-1.1,7,7,0,0,1-2.53-3,10,10,0,0,1-.87-4.26,10.54,10.54,0,0,1,.5-3.32,8,8,0,0,1,1.44-2.65,6.56,6.56,0,0,1,2.33-1.76,7.35,7.35,0,0,1,3.09-.64,6.72,6.72,0,0,1,6.39,4.08,10.41,10.41,0,0,1,.83,4.25,10.26,10.26,0,0,1-.85,4.28,6.9,6.9,0,0,1-2.53,3A7,7,0,0,1,1048.18,836.38Zm.13-1.45a4.71,4.71,0,0,0,3-.93,5.26,5.26,0,0,0,1.76-2.45,10.27,10.27,0,0,0,.55-3.5,8.56,8.56,0,0,0-1.32-5,4.56,4.56,0,0,0-4-1.89,4.8,4.8,0,0,0-3,.95,5.42,5.42,0,0,0-1.81,2.48,10,10,0,0,0-.57,3.51,8.15,8.15,0,0,0,1.4,4.92A4.69,4.69,0,0,0,1048.31,834.93Z"/><path class="cls-5" d="M1059.09,836V820h1.58l.25,2.47a6,6,0,0,1,2.32-2,6.83,6.83,0,0,1,3.14-.74,5.07,5.07,0,0,1,4.07,1.52q1.3,1.52,1.3,4.86v10h-1.83V825.25a4.84,4.84,0,0,0-.91-3.08,3.51,3.51,0,0,0-2.74-.94,5.56,5.56,0,0,0-3.57,1.1,4.7,4.7,0,0,0-1.74,2.84q-.06.69-.06,1.44V836Z"/><path class="cls-5" d="M1080.66,836.39a10.79,10.79,0,0,1-2.92-.38,7.62,7.62,0,0,1-2.15-.91l.26-1.52a10,10,0,0,0,4.63,1.26q4,0,4.12-2.94a2.44,2.44,0,0,0-.8-1.93,9.72,9.72,0,0,0-3.2-1.46l-1.39-.48q-3.76-1.14-3.79-4.06a3.87,3.87,0,0,1,1.49-3,5.9,5.9,0,0,1,4-1.3,11.52,11.52,0,0,1,4.76,1l-.62,1.35a12,12,0,0,0-4.19-.85,4.24,4.24,0,0,0-2.67.76,2.47,2.47,0,0,0-1,2.05,2.13,2.13,0,0,0,.64,1.66,6.69,6.69,0,0,0,2.53,1.11l.75.26.61.22a8.22,8.22,0,0,1,3.54,1.84,4,4,0,0,1,1,2.89,4,4,0,0,1-1.57,3.27A6.58,6.58,0,0,1,1080.66,836.39Z"/><path class="cls-5" d="M1096.3,836.38a6.67,6.67,0,0,1-5.28-2.23,8.82,8.82,0,0,1-2-6,9.23,9.23,0,0,1,1.91-6,6.3,6.3,0,0,1,4.94-2.42,5.66,5.66,0,0,1,4.54,2,8.1,8.1,0,0,1,1.71,5.42c0,.09,0,.27,0,.54s0,.46,0,.56H1091a7.68,7.68,0,0,0,1.49,4.9,4.73,4.73,0,0,0,3.87,1.81,9.07,9.07,0,0,0,2.72-.37,14.32,14.32,0,0,0,2.42-1l.31,1.36A10.28,10.28,0,0,1,1096.3,836.38Zm-5.24-9.62h9.14a6.38,6.38,0,0,0-1.16-4.11,3.87,3.87,0,0,0-3.18-1.43,4.09,4.09,0,0,0-3.31,1.52A7.2,7.2,0,0,0,1091.06,826.76Z"/><path class="cls-5" d="M384.49,354.93q0-2.52-2.14-2.52a11.82,11.82,0,0,0-2.23.24,9.22,9.22,0,0,0-1.71.45l-.46-1.44a13.24,13.24,0,0,1,4.18-.74,5.08,5.08,0,0,1,3.14.89,3.23,3.23,0,0,1,1.18,2.75V363h-1.62l-.26-1.36a5.51,5.51,0,0,1-1.77,1.17,5.29,5.29,0,0,1-2.11.47,3.55,3.55,0,0,1-2.48-.9,3.25,3.25,0,0,1-1-2.54,2.59,2.59,0,0,1,1.29-2.4,5.64,5.64,0,0,1,1.85-.74q1-.2,2.56-.39l1.57-.18Zm0,5.49v-3l-1.6.23a13.07,13.07,0,0,0-2.32.47,1.91,1.91,0,0,0-1.44,1.84,1.94,1.94,0,0,0,.52,1.42,1.89,1.89,0,0,0,1.42.53A4.63,4.63,0,0,0,384.49,360.42Z"/><path class="cls-5" d="M395.59,363.32a3.86,3.86,0,0,1-2-.53,3.63,3.63,0,0,1-1.34-1.35v6.13l-2,.21V351.26h2v1.62a4.18,4.18,0,0,1,1.38-1.43,3.54,3.54,0,0,1,1.95-.55,4.27,4.27,0,0,1,4.13,2.41,7.94,7.94,0,0,1,.77,3.63,7.27,7.27,0,0,1-1.62,5.11A4.2,4.2,0,0,1,395.59,363.32Zm-3.38-6.23q0,4.73,3.31,4.73,3,0,3-4.73a6.14,6.14,0,0,0-.8-3.65,2.65,2.65,0,0,0-2.21-1q-2.75,0-3.18,3.18A10.45,10.45,0,0,0,392.21,357.09Z"/><path class="cls-5" d="M408.79,363.32a3.87,3.87,0,0,1-2-.53,3.62,3.62,0,0,1-1.34-1.35v6.13l-2,.21V351.26h2v1.62a4.16,4.16,0,0,1,1.38-1.43,3.54,3.54,0,0,1,1.94-.55,4.27,4.27,0,0,1,4.14,2.41,7.94,7.94,0,0,1,.77,3.63,7.26,7.26,0,0,1-1.62,5.11A4.19,4.19,0,0,1,408.79,363.32Zm-3.38-6.23q0,4.73,3.31,4.73,3,0,3-4.73a6.14,6.14,0,0,0-.8-3.65,2.65,2.65,0,0,0-2.21-1q-2.75,0-3.18,3.18A10.47,10.47,0,0,0,405.41,357.09Z"/><path class="cls-5" d="M423.18,363h-3.23v-3.23h3.23Z"/><path class="cls-5" d="M437.71,360.79a3.58,3.58,0,0,1-1.29,1.59,3.44,3.44,0,0,1-2.06.67,4.18,4.18,0,0,1-3.53-1.73,6.86,6.86,0,0,1-1.3-4.24,6.75,6.75,0,0,1,1.68-5,4.47,4.47,0,0,1,3.26-1.16,3.65,3.65,0,0,1,3.25,2l.06-1.6h2q-.1,2.63-.1,7v3.16q0,3.8-1.65,5.18a6.65,6.65,0,0,1-3.59,1.27,24.24,24.24,0,0,1-2.79.14l-.16-1.5a14.13,14.13,0,0,0,3.36-.28,4.63,4.63,0,0,0,1.48-.62,3.13,3.13,0,0,0,.79-.89,6.24,6.24,0,0,0,.61-3.13Zm-.93-7.45a2.37,2.37,0,0,0-.9-.68,3.12,3.12,0,0,0-1.29-.25,3.05,3.05,0,0,0-1.29.26,2.59,2.59,0,0,0-1.41,1.62,7.22,7.22,0,0,0-.39,2.33,11.57,11.57,0,0,0,.1,1.75,4.17,4.17,0,0,0,.9,2.1,2.48,2.48,0,0,0,2,.84,2.77,2.77,0,0,0,2.8-1.85,5.52,5.52,0,0,0,.41-2.09,14.58,14.58,0,0,0-.08-1.72,6.2,6.2,0,0,0-.29-1.26A3.54,3.54,0,0,0,436.78,353.34Z"/><path class="cls-5" d="M445.77,362.49a4.93,4.93,0,0,1-1.83-2.21,7.9,7.9,0,0,1-.6-3.14,8.44,8.44,0,0,1,.55-3.14,5.21,5.21,0,0,1,1.65-2.25,3.86,3.86,0,0,1,2.42-.85,4.1,4.1,0,0,1,3.65,1.71,7.3,7.3,0,0,1,1.16,4.2v.66h-7.47a5.82,5.82,0,0,0,.91,3.08,2.84,2.84,0,0,0,2.53,1.27,9,9,0,0,0,3.15-1.22l.64,1.33a5.16,5.16,0,0,1-3.81,1.4A5.23,5.23,0,0,1,445.77,362.49Zm5.15-6.46q-.22-3.62-2.54-3.62-2.62,0-3,3.62Z"/><path class="cls-5" d="M460.84,352.77v5.53a9.29,9.29,0,0,0,.11,1.63,2,2,0,0,0,.45,1,1.66,1.66,0,0,0,.88.5,6.52,6.52,0,0,0,1.46.13h2.16l-.11,1.5h-2q-3,0-4-1.12a4.05,4.05,0,0,1-.81-2.35,17.61,17.61,0,0,1-.07-1.77v-5h-3.33l.21-1.5h3.12V347.2l2-.58v4.64h5v1.5Z"/><path class="cls-5" d="M475.17,364.68a16.11,16.11,0,0,1-3.28-9.92,16.69,16.69,0,0,1,3.24-10H477a18.31,18.31,0,0,0-3.05,9.93,16.64,16.64,0,0,0,.8,5.27,22,22,0,0,0,2.27,4.75Z"/><path class="cls-5" d="M485.77,351.12l1.84-5.13h1.56l-1.23,5.13Z"/><path class="cls-5" d="M503.71,346h2.12l-7.62,19.43h-2.05Z"/><path class="cls-5" d="M516.51,354.93q0-2.52-2.14-2.52a11.82,11.82,0,0,0-2.23.24,9.22,9.22,0,0,0-1.71.45l-.46-1.44a13.24,13.24,0,0,1,4.18-.74,5.08,5.08,0,0,1,3.14.89,3.23,3.23,0,0,1,1.18,2.75V363h-1.62l-.26-1.36a5.51,5.51,0,0,1-1.77,1.17,5.29,5.29,0,0,1-2.11.47,3.55,3.55,0,0,1-2.48-.9,3.25,3.25,0,0,1-1-2.54,2.59,2.59,0,0,1,1.29-2.4,5.64,5.64,0,0,1,1.85-.74q1-.2,2.56-.39l1.57-.18Zm0,5.49v-3l-1.6.23a13.07,13.07,0,0,0-2.32.47,1.91,1.91,0,0,0-1.44,1.84,1.94,1.94,0,0,0,.52,1.42,1.89,1.89,0,0,0,1.42.53A4.63,4.63,0,0,0,516.51,360.42Z"/><path class="cls-5" d="M528.25,350.91q3.66,0,3.66,4.64V363h-2v-7.26a8.58,8.58,0,0,0-.13-1.78,2.38,2.38,0,0,0-.39-.88,2.13,2.13,0,0,0-1.79-.71,3.2,3.2,0,0,0-2.13.73,2.4,2.4,0,0,0-.87,1.93v8h-2V351.26h1.79l.11,1.28A4.19,4.19,0,0,1,528.25,350.91Z"/><path class="cls-5" d="M544.23,352.63a7.33,7.33,0,0,1,1.28,4.49,6.91,6.91,0,0,1-1.39,4.48,4.58,4.58,0,0,1-3.76,1.71,5.07,5.07,0,0,1-2.26-.48,4.22,4.22,0,0,1-1.6-1.33,7.41,7.41,0,0,1-1.24-4.45,6.88,6.88,0,0,1,1.37-4.44,4.64,4.64,0,0,1,3.84-1.7A4.39,4.39,0,0,1,544.23,352.63Zm-3.87,9.18a2.77,2.77,0,0,0,2.79-2,6.54,6.54,0,0,0,.4-2.25,14.58,14.58,0,0,0-.09-1.8,4.75,4.75,0,0,0-.93-2.38,2.61,2.61,0,0,0-2.18-.92,2.73,2.73,0,0,0-2.73,2.08,7.11,7.11,0,0,0-.39,2.34,8.22,8.22,0,0,0,.68,3.57A2.47,2.47,0,0,0,540.37,361.81Z"/><path class="cls-5" d="M553.26,352.77v5.53a9.28,9.28,0,0,0,.11,1.63,2,2,0,0,0,.45,1,1.67,1.67,0,0,0,.88.5,6.54,6.54,0,0,0,1.46.13h2.16l-.11,1.5h-2q-3,0-4.05-1.12a4.05,4.05,0,0,1-.8-2.35,17.26,17.26,0,0,1-.08-1.77v-5H548l.21-1.5h3.12V347.2l2-.58v4.64h5v1.5Z"/><path class="cls-5" d="M571.41,355.94V363h-2v-6.86a5.28,5.28,0,0,0-.59-3,2.09,2.09,0,0,0-1.78-.78,3,3,0,0,0-2.09.83,2.44,2.44,0,0,0-.89,1.79v8h-2v-16.6l2-.21v6.46a4.42,4.42,0,0,1,3.69-1.78Q571.41,350.91,571.41,355.94Z"/><path class="cls-5" d="M577.79,362.49a4.93,4.93,0,0,1-1.83-2.21,7.9,7.9,0,0,1-.6-3.14,8.44,8.44,0,0,1,.55-3.14,5.21,5.21,0,0,1,1.65-2.25,3.86,3.86,0,0,1,2.42-.85,4.1,4.1,0,0,1,3.65,1.71,7.3,7.3,0,0,1,1.16,4.2v.66h-7.47a5.82,5.82,0,0,0,.91,3.08,2.84,2.84,0,0,0,2.53,1.27,9,9,0,0,0,3.15-1.22l.64,1.33a5.16,5.16,0,0,1-3.81,1.4A5.23,5.23,0,0,1,577.79,362.49Zm5.15-6.46q-.22-3.62-2.54-3.62-2.62,0-3,3.62Z"/><path class="cls-5" d="M592.43,363h-2V351.26h1.6l.16,2.18a4.88,4.88,0,0,1,1.89-1.89,5.4,5.4,0,0,1,2.65-.64h.95v1.82H596.5a4.42,4.42,0,0,0-3,.94,3.53,3.53,0,0,0-1.1,2.83Z"/><path class="cls-5" d="M610.47,354.16v1.67h-7.2v-1.67Z"/><path class="cls-5" d="M618.84,363h-2V351.26h1.6l.16,2.18a4.88,4.88,0,0,1,1.89-1.89,5.4,5.4,0,0,1,2.65-.64h.95v1.82h-1.22a4.42,4.42,0,0,0-3,.94,3.53,3.53,0,0,0-1.1,2.83Z"/><path class="cls-5" d="M636.65,352.63a7.34,7.34,0,0,1,1.28,4.49,6.91,6.91,0,0,1-1.38,4.48,4.58,4.58,0,0,1-3.76,1.71,5.07,5.07,0,0,1-2.26-.48,4.22,4.22,0,0,1-1.6-1.33,7.41,7.41,0,0,1-1.23-4.45,6.89,6.89,0,0,1,1.36-4.44,4.64,4.64,0,0,1,3.84-1.7A4.39,4.39,0,0,1,636.65,352.63Zm-3.87,9.18a2.77,2.77,0,0,0,2.79-2,6.58,6.58,0,0,0,.4-2.25,14.39,14.39,0,0,0-.09-1.8,4.75,4.75,0,0,0-.93-2.38,2.62,2.62,0,0,0-2.17-.92,2.73,2.73,0,0,0-2.73,2.08,7.11,7.11,0,0,0-.39,2.34,8.22,8.22,0,0,0,.68,3.57A2.47,2.47,0,0,0,632.78,361.81Z"/><path class="cls-5" d="M650.57,359.22q0,4.09-4.55,4.09t-4.55-4.09v-8h2v8.13a2.4,2.4,0,0,0,.62,1.84,3.66,3.66,0,0,0,4,0,2.41,2.41,0,0,0,.62-1.84v-8.13h2Z"/><path class="cls-5" d="M658.87,352.77v5.53a9.28,9.28,0,0,0,.11,1.63,2,2,0,0,0,.45,1,1.67,1.67,0,0,0,.88.5,6.54,6.54,0,0,0,1.46.13h2.16l-.11,1.5h-2q-3,0-4.05-1.12a4.05,4.05,0,0,1-.8-2.35,17.26,17.26,0,0,1-.08-1.77v-5h-3.33l.21-1.5h3.12V347.2l2-.58v4.64h5v1.5Z"/><path class="cls-5" d="M670.21,362.49a4.93,4.93,0,0,1-1.83-2.21,7.9,7.9,0,0,1-.6-3.14,8.44,8.44,0,0,1,.55-3.14,5.21,5.21,0,0,1,1.65-2.25,3.86,3.86,0,0,1,2.42-.85,4.1,4.1,0,0,1,3.65,1.71,7.3,7.3,0,0,1,1.16,4.2v.66h-7.46a5.82,5.82,0,0,0,.91,3.08,2.83,2.83,0,0,0,2.53,1.27,9,9,0,0,0,3.15-1.22l.64,1.33a5.15,5.15,0,0,1-3.81,1.4A5.22,5.22,0,0,1,670.21,362.49Zm5.14-6.46q-.21-3.62-2.54-3.62-2.62,0-3,3.62Z"/><path class="cls-5" d="M687.19,346l-1.81,5.13h-1.57l1.26-5.13Z"/><path class="cls-5" d="M696.94,366.5l.55-6.52h2.76l-2,6.52Z"/><path class="cls-5" d="M726,364.68a16.12,16.12,0,0,1-3.28-9.92,16.68,16.68,0,0,1,3.24-10h1.89a18.3,18.3,0,0,0-3.05,9.93,16.61,16.61,0,0,0,.8,5.27,21.86,21.86,0,0,0,2.27,4.75Z"/><path class="cls-5" d="M737.66,363h-2V351.26h1.6l.16,2.18a4.9,4.9,0,0,1,1.89-1.89,5.42,5.42,0,0,1,2.65-.64H743v1.82h-1.22a4.42,4.42,0,0,0-3,.94,3.53,3.53,0,0,0-1.1,2.83Z"/><path class="cls-5" d="M749.42,362.49a4.93,4.93,0,0,1-1.83-2.21,7.9,7.9,0,0,1-.6-3.14,8.44,8.44,0,0,1,.55-3.14,5.21,5.21,0,0,1,1.65-2.25,3.86,3.86,0,0,1,2.42-.85,4.1,4.1,0,0,1,3.65,1.71,7.3,7.3,0,0,1,1.16,4.2v.66H749a5.82,5.82,0,0,0,.91,3.08,2.83,2.83,0,0,0,2.53,1.27,9,9,0,0,0,3.15-1.22l.64,1.33a5.15,5.15,0,0,1-3.81,1.4A5.22,5.22,0,0,1,749.42,362.49Zm5.14-6.46q-.21-3.62-2.54-3.62-2.62,0-3,3.62Z"/><path class="cls-5" d="M768,352.89v-1.62h2v16.31l-1.93.21,0-6.35a5.14,5.14,0,0,1-1.55,1.39,4.26,4.26,0,0,1-2.12.49,4.7,4.7,0,0,1-2.22-.5,4,4,0,0,1-1.54-1.4,8,8,0,0,1-1.17-4.43,7.25,7.25,0,0,1,1.25-4.35,4.86,4.86,0,0,1,5.88-1.22A4.47,4.47,0,0,1,768,352.89Zm0,4.2q0-4.67-3.45-4.67-3.19,0-3.19,4.67,0,3.51,1.91,4.46a3.19,3.19,0,0,0,1.39.27,3.1,3.1,0,0,0,1.51-.38,2.71,2.71,0,0,0,1.07-1.05A6.51,6.51,0,0,0,768,357.09Z"/><path class="cls-5" d="M776.16,366.5l.55-6.52h2.76l-2,6.52Z"/><path class="cls-5" d="M803.67,363h-2V351.26h1.6l.16,2.18a4.88,4.88,0,0,1,1.89-1.89,5.4,5.4,0,0,1,2.65-.64H809v1.82h-1.22a4.42,4.42,0,0,0-3,.94,3.53,3.53,0,0,0-1.1,2.83Z"/><path class="cls-5" d="M815.43,362.49a4.93,4.93,0,0,1-1.83-2.21,7.9,7.9,0,0,1-.6-3.14,8.44,8.44,0,0,1,.55-3.14,5.21,5.21,0,0,1,1.65-2.25,3.86,3.86,0,0,1,2.42-.85,4.1,4.1,0,0,1,3.65,1.71,7.3,7.3,0,0,1,1.16,4.2v.66H815a5.82,5.82,0,0,0,.91,3.08,2.84,2.84,0,0,0,2.53,1.27,9,9,0,0,0,3.15-1.22l.64,1.33a5.16,5.16,0,0,1-3.81,1.4A5.23,5.23,0,0,1,815.43,362.49Zm5.15-6.46q-.22-3.62-2.54-3.62-2.62,0-3,3.62Z"/><path class="cls-5" d="M834.5,357.55a3.51,3.51,0,0,1,.7,2.36,3,3,0,0,1-1.18,2.48,4.59,4.59,0,0,1-2.95.93,9.55,9.55,0,0,1-2.46-.32,5.21,5.21,0,0,1-1.76-.75l.48-1.41a6.1,6.1,0,0,0,1.43.56,7.56,7.56,0,0,0,2.12.28,3.13,3.13,0,0,0,1.83-.48,1.48,1.48,0,0,0,.68-1.27,2.06,2.06,0,0,0-.34-1.25,2.25,2.25,0,0,0-1.31-.69l-2-.48a3.83,3.83,0,0,1-2.3-1.25,3.51,3.51,0,0,1-.57-2,3.19,3.19,0,0,1,1-2.26,3.9,3.9,0,0,1,2.9-1.05h.14a7.63,7.63,0,0,1,3.64.81l-.43,1.38a8.08,8.08,0,0,0-3.18-.67,2.67,2.67,0,0,0-1.64.5,1.49,1.49,0,0,0-.64,1.23,1.65,1.65,0,0,0,.32,1.11,2.34,2.34,0,0,0,1.22.59l2.05.5A4.18,4.18,0,0,1,834.5,357.55Z"/><path class="cls-5" d="M842.17,366.5l.55-6.52h2.76l-2,6.52Z"/><path class="cls-5" d="M871.5,350.91q3.66,0,3.66,4.64V363h-2v-7.26a8.58,8.58,0,0,0-.13-1.78,2.38,2.38,0,0,0-.39-.88,2.13,2.13,0,0,0-1.79-.71,3.2,3.2,0,0,0-2.13.73,2.4,2.4,0,0,0-.87,1.93v8h-2V351.26h1.79l.11,1.28A4.19,4.19,0,0,1,871.5,350.91Z"/><path class="cls-5" d="M881.44,362.49a4.93,4.93,0,0,1-1.83-2.21,7.9,7.9,0,0,1-.6-3.14,8.44,8.44,0,0,1,.55-3.14,5.21,5.21,0,0,1,1.65-2.25,3.86,3.86,0,0,1,2.42-.85,4.1,4.1,0,0,1,3.65,1.71,7.3,7.3,0,0,1,1.16,4.2v.66H881a5.82,5.82,0,0,0,.91,3.08,2.83,2.83,0,0,0,2.53,1.27,9,9,0,0,0,3.15-1.22l.64,1.33a5.15,5.15,0,0,1-3.81,1.4A5.22,5.22,0,0,1,881.44,362.49Zm5.14-6.46q-.21-3.62-2.54-3.62-2.62,0-3,3.62Z"/><path class="cls-5" d="M891.95,351.26h2.23l2.8,4.53,2.8-4.53h2L898.2,357l3.75,6.07h-2.17l-2.88-4.69-3,4.69h-2.15l3.87-6Z"/><path class="cls-5" d="M909.71,352.77v5.53a9.29,9.29,0,0,0,.11,1.63,2,2,0,0,0,.45,1,1.66,1.66,0,0,0,.88.5,6.52,6.52,0,0,0,1.46.13h2.16l-.11,1.5h-2q-3,0-4-1.12a4.05,4.05,0,0,1-.81-2.35,17.61,17.61,0,0,1-.07-1.77v-5h-3.33l.21-1.5h3.12V347.2l2-.58v4.64h5v1.5Z"/><path class="cls-5" d="M922.16,344.73a16.69,16.69,0,0,1,3.24,10,16.12,16.12,0,0,1-3.28,9.92h-1.89a22,22,0,0,0,2.27-4.75,16.64,16.64,0,0,0,.8-5.27,18.31,18.31,0,0,0-3.05-9.93Z"/><path class="cls-5" d="M955.88,353.4H943.42v-1.61h12.46Zm0,4.74H943.43v-1.59h12.46Z"/><path class="cls-5" d="M958,350.64v-1.78l11,5.66v1l-11,5.22V359l8.39-4Z"/><path class="cls-5" d="M988.19,358.16a2.36,2.36,0,0,0-.86-1.95,3.88,3.88,0,0,0-2.24-.78V354a3.88,3.88,0,0,0,2.24-.77,2.35,2.35,0,0,0,.86-1.94v-2.5a4.49,4.49,0,0,1,.88-3.08,3.84,3.84,0,0,1,2.95-1h2.48v1.46H992a1.34,1.34,0,0,0-1.09.46,3.73,3.73,0,0,0-.38,2.11v2.59a3,3,0,0,1-1,2.52,6.59,6.59,0,0,1-1.61.84,4.49,4.49,0,0,1,2.17,1.41,3.57,3.57,0,0,1,.47,1.94v2.59a3.91,3.91,0,0,0,.37,2.1,1.31,1.31,0,0,0,1.11.48h2.45v1.45H992a3.84,3.84,0,0,1-2.95-1,4.49,4.49,0,0,1-.88-3.08Z"/><path class="cls-5" d="M411.3,396h2.12l-7.62,19.43h-2.05Z"/><path class="cls-5" d="M424.5,396h2.12L419,415.45h-2.05Z"/><path class="cls-5" d="M447.21,413h-2V401.26h1.6l.16,2.18a4.9,4.9,0,0,1,1.89-1.89,5.42,5.42,0,0,1,2.65-.64h.95v1.82h-1.22a4.42,4.42,0,0,0-3,.94,3.53,3.53,0,0,0-1.1,2.83Z"/><path class="cls-5" d="M465,402.63a7.33,7.33,0,0,1,1.28,4.49,6.91,6.91,0,0,1-1.39,4.48,4.58,4.58,0,0,1-3.76,1.71,5.07,5.07,0,0,1-2.26-.48,4.23,4.23,0,0,1-1.6-1.33,7.41,7.41,0,0,1-1.24-4.45,6.89,6.89,0,0,1,1.37-4.44,4.64,4.64,0,0,1,3.84-1.7A4.39,4.39,0,0,1,465,402.63Zm-3.87,9.18a2.77,2.77,0,0,0,2.79-2,6.54,6.54,0,0,0,.4-2.25,14.57,14.57,0,0,0-.09-1.8,4.75,4.75,0,0,0-.93-2.38,2.61,2.61,0,0,0-2.18-.92,2.73,2.73,0,0,0-2.73,2.08,7.11,7.11,0,0,0-.39,2.34,8.22,8.22,0,0,0,.68,3.57A2.47,2.47,0,0,0,461.15,411.81Z"/><path class="cls-5" d="M478.94,409.22q0,4.09-4.55,4.09t-4.55-4.09v-8h2v8.13a2.4,2.4,0,0,0,.62,1.84,3.66,3.66,0,0,0,4,0,2.4,2.4,0,0,0,.62-1.84v-8.13h2Z"/><path class="cls-5" d="M487.25,402.77v5.53a9.3,9.3,0,0,0,.11,1.63,2,2,0,0,0,.45,1,1.66,1.66,0,0,0,.88.5,6.52,6.52,0,0,0,1.46.13h2.16l-.11,1.5h-2q-3,0-4-1.12a4.06,4.06,0,0,1-.81-2.35,17.61,17.61,0,0,1-.07-1.77v-5H482l.21-1.5h3.12V397.2l2-.58v4.64h5v1.5Z"/><path class="cls-5" d="M498.58,412.49a4.93,4.93,0,0,1-1.83-2.21,7.9,7.9,0,0,1-.6-3.14,8.44,8.44,0,0,1,.55-3.14,5.21,5.21,0,0,1,1.65-2.25,3.86,3.86,0,0,1,2.42-.85,4.1,4.1,0,0,1,3.65,1.71,7.3,7.3,0,0,1,1.16,4.2v.66h-7.47a5.82,5.82,0,0,0,.91,3.08,2.84,2.84,0,0,0,2.53,1.27,9,9,0,0,0,3.15-1.22l.64,1.33a5.16,5.16,0,0,1-3.81,1.4A5.23,5.23,0,0,1,498.58,412.49Zm5.15-6.46q-.22-3.62-2.54-3.62-2.62,0-3,3.62Z"/><path class="cls-5" d="M531.8,405.94V413h-2v-6.86a5.26,5.26,0,0,0-.59-3,2.09,2.09,0,0,0-1.78-.78,3,3,0,0,0-2.09.83,2.44,2.44,0,0,0-.89,1.79v8h-2v-16.6l2-.21v6.46a4.41,4.41,0,0,1,3.68-1.78Q531.8,400.91,531.8,405.94Z"/><path class="cls-5" d="M542.91,404.93q0-2.52-2.14-2.52a11.82,11.82,0,0,0-2.23.24,9.14,9.14,0,0,0-1.71.45l-.46-1.44a13.24,13.24,0,0,1,4.18-.74,5.08,5.08,0,0,1,3.14.89,3.22,3.22,0,0,1,1.18,2.75V413h-1.62l-.26-1.36a5.51,5.51,0,0,1-1.77,1.17,5.29,5.29,0,0,1-2.11.47,3.55,3.55,0,0,1-2.48-.9,3.25,3.25,0,0,1-1-2.54,2.59,2.59,0,0,1,1.29-2.4,5.63,5.63,0,0,1,1.85-.74q1-.2,2.56-.39l1.57-.18Zm0,5.49v-3l-1.6.23a13,13,0,0,0-2.32.47,1.91,1.91,0,0,0-1.44,1.84,1.94,1.94,0,0,0,.52,1.42,1.9,1.9,0,0,0,1.42.53A4.63,4.63,0,0,0,542.91,410.42Z"/><path class="cls-5" d="M554.65,400.91q3.66,0,3.66,4.64V413h-2v-7.26a8.58,8.58,0,0,0-.13-1.78,2.38,2.38,0,0,0-.39-.88,2.13,2.13,0,0,0-1.79-.71,3.2,3.2,0,0,0-2.13.73,2.4,2.4,0,0,0-.87,1.93v8h-2V401.26h1.79l.11,1.28A4.19,4.19,0,0,1,554.65,400.91Z"/><path class="cls-5" d="M569.63,402.89v-6.43l2-.21V413h-2v-1.83a3.71,3.71,0,0,1-3.37,2.09,4,4,0,0,1-3.62-1.78,8.2,8.2,0,0,1-1.13-4.48,6.8,6.8,0,0,1,1.65-4.94,4.13,4.13,0,0,1,3.12-1.2,3.87,3.87,0,0,1,2.16.55A3.11,3.11,0,0,1,569.63,402.89Zm0,4.2q0-2.75-.82-3.71a2.88,2.88,0,0,0-2.32-1,2.59,2.59,0,0,0-2.7,2.06,9.66,9.66,0,0,0-.33,2.72q0,4.62,3,4.62T569.63,407.09Z"/><path class="cls-5" d="M584.56,413H583a7.37,7.37,0,0,1-3-.43,2.68,2.68,0,0,1-.82-.57q-.8-.83-.83-3.65V397.74h-3.52v-1.5h5.48V408.3a5.15,5.15,0,0,0,.39,2.62,1.44,1.44,0,0,0,1,.55,10.18,10.18,0,0,0,1.2.07h1.73Z"/><path class="cls-5" d="M589.34,402.77v-1.5h5.32v10.28H598V413H589v-1.5h3.74v-8.78Zm3-4.61V397.1a.83.83,0,0,1,.44-.68,1.42,1.42,0,0,1,1.73,0,.83.83,0,0,1,.43.68v1.06a.83.83,0,0,1-.43.68,1.41,1.41,0,0,1-1.73,0A.83.83,0,0,1,592.38,398.16Z"/><path class="cls-5" d="M607.46,400.91q3.66,0,3.66,4.64V413h-2v-7.26A8.58,8.58,0,0,0,609,404a2.38,2.38,0,0,0-.39-.88,2.13,2.13,0,0,0-1.79-.71,3.2,3.2,0,0,0-2.13.73,2.4,2.4,0,0,0-.87,1.93v8h-2V401.26h1.79l.11,1.28A4.19,4.19,0,0,1,607.46,400.91Z"/><path class="cls-5" d="M622.54,410.79a3.58,3.58,0,0,1-1.29,1.59,3.44,3.44,0,0,1-2.06.67,4.18,4.18,0,0,1-3.53-1.74,6.86,6.86,0,0,1-1.3-4.24,6.75,6.75,0,0,1,1.68-5,4.47,4.47,0,0,1,3.26-1.16,3.65,3.65,0,0,1,3.25,2l.06-1.6h2q-.1,2.63-.1,7v3.16q0,3.8-1.65,5.18a6.65,6.65,0,0,1-3.59,1.27,24.24,24.24,0,0,1-2.79.14l-.16-1.5a14.15,14.15,0,0,0,3.36-.28,4.64,4.64,0,0,0,1.48-.62,3.13,3.13,0,0,0,.79-.89,6.24,6.24,0,0,0,.61-3.13Zm-.93-7.45a2.38,2.38,0,0,0-.9-.68,3.12,3.12,0,0,0-1.29-.25,3.05,3.05,0,0,0-1.29.26,2.59,2.59,0,0,0-1.41,1.62,7.21,7.21,0,0,0-.39,2.33,11.58,11.58,0,0,0,.1,1.75,4.17,4.17,0,0,0,.9,2.1,2.48,2.48,0,0,0,2,.84,2.77,2.77,0,0,0,2.8-1.85,5.52,5.52,0,0,0,.41-2.09,14.57,14.57,0,0,0-.08-1.72,6.21,6.21,0,0,0-.29-1.26A3.54,3.54,0,0,0,621.61,403.34Z"/><path class="cls-5" d="M383.85,451.26a2.35,2.35,0,0,0,.86,1.94A3.9,3.9,0,0,0,387,454v1.45a3.87,3.87,0,0,0-2.24.78,2.36,2.36,0,0,0-.87,2v2.49a4.48,4.48,0,0,1-.87,3.08,3.84,3.84,0,0,1-2.95,1h-2.49v-1.45H380a1.25,1.25,0,0,0,1.36-1.07,8,8,0,0,0,.11-1.5v-2.59a3,3,0,0,1,.67-2.2,5.84,5.84,0,0,1,2-1.15,4.42,4.42,0,0,1-2.17-1.43,3.65,3.65,0,0,1-.46-1.93v-2.59a5.31,5.31,0,0,0-.16-1.69,2.53,2.53,0,0,0-.32-.52,1.22,1.22,0,0,0-1-.35h-2.46v-1.46H380a3.84,3.84,0,0,1,2.95,1,4.49,4.49,0,0,1,.88,3.08Z"/><path class="cls-5" d="M394.08,444.73a16.69,16.69,0,0,1,3.24,10,16.12,16.12,0,0,1-3.28,9.92h-1.89a22,22,0,0,0,2.27-4.75,16.64,16.64,0,0,0,.8-5.27,18.31,18.31,0,0,0-3.05-9.93Z"/><path class="cls-5" d="M384.49,554.93q0-2.52-2.14-2.52a11.82,11.82,0,0,0-2.23.24,9.14,9.14,0,0,0-1.71.45l-.46-1.44a13.24,13.24,0,0,1,4.18-.74,5.08,5.08,0,0,1,3.14.89,3.22,3.22,0,0,1,1.18,2.75V563h-1.62l-.26-1.36a5.51,5.51,0,0,1-1.77,1.17,5.29,5.29,0,0,1-2.11.47,3.55,3.55,0,0,1-2.48-.9,3.25,3.25,0,0,1-1-2.54,2.59,2.59,0,0,1,1.29-2.4,5.63,5.63,0,0,1,1.85-.74q1-.2,2.56-.39l1.57-.18Zm0,5.49v-3l-1.6.23a13,13,0,0,0-2.32.47,1.91,1.91,0,0,0-1.44,1.84,1.94,1.94,0,0,0,.52,1.42,1.9,1.9,0,0,0,1.42.53A4.63,4.63,0,0,0,384.49,560.42Z"/><path class="cls-5" d="M395.59,563.32a3.86,3.86,0,0,1-2-.53,3.63,3.63,0,0,1-1.34-1.35v6.13l-2,.21V551.26h2v1.62a4.18,4.18,0,0,1,1.38-1.43,3.54,3.54,0,0,1,1.95-.55,4.27,4.27,0,0,1,4.13,2.41,7.94,7.94,0,0,1,.77,3.63,7.27,7.27,0,0,1-1.62,5.11A4.2,4.2,0,0,1,395.59,563.32Zm-3.38-6.23q0,4.73,3.31,4.73,3,0,3-4.73a6.15,6.15,0,0,0-.8-3.65,2.64,2.64,0,0,0-2.21-1q-2.75,0-3.18,3.18A10.45,10.45,0,0,0,392.21,557.09Z"/><path class="cls-5" d="M408.79,563.32a3.87,3.87,0,0,1-2-.53,3.62,3.62,0,0,1-1.34-1.35v6.13l-2,.21V551.26h2v1.62a4.16,4.16,0,0,1,1.38-1.43,3.54,3.54,0,0,1,1.94-.55,4.27,4.27,0,0,1,4.14,2.41,7.94,7.94,0,0,1,.77,3.63,7.26,7.26,0,0,1-1.62,5.11A4.19,4.19,0,0,1,408.79,563.32Zm-3.38-6.23q0,4.73,3.31,4.73,3,0,3-4.73a6.15,6.15,0,0,0-.8-3.65,2.65,2.65,0,0,0-2.21-1q-2.75,0-3.18,3.18A10.47,10.47,0,0,0,405.41,557.09Z"/><path class="cls-5" d="M423.18,563h-3.23v-3.23h3.23Z"/><path class="cls-5" d="M437.71,560.79a3.58,3.58,0,0,1-1.29,1.59,3.44,3.44,0,0,1-2.06.67,4.18,4.18,0,0,1-3.53-1.74,6.86,6.86,0,0,1-1.3-4.24,6.75,6.75,0,0,1,1.68-5,4.47,4.47,0,0,1,3.26-1.16,3.65,3.65,0,0,1,3.25,2l.06-1.6h2q-.1,2.63-.1,7v3.16q0,3.8-1.65,5.18a6.65,6.65,0,0,1-3.59,1.27,24.24,24.24,0,0,1-2.79.14l-.16-1.5a14.15,14.15,0,0,0,3.36-.28,4.64,4.64,0,0,0,1.48-.62,3.13,3.13,0,0,0,.79-.89,6.24,6.24,0,0,0,.61-3.13Zm-.93-7.45a2.38,2.38,0,0,0-.9-.68,3.12,3.12,0,0,0-1.29-.25,3.05,3.05,0,0,0-1.29.26,2.59,2.59,0,0,0-1.41,1.62,7.21,7.21,0,0,0-.39,2.33,11.58,11.58,0,0,0,.1,1.75,4.17,4.17,0,0,0,.9,2.1,2.48,2.48,0,0,0,2,.84,2.77,2.77,0,0,0,2.8-1.85,5.52,5.52,0,0,0,.41-2.09,14.57,14.57,0,0,0-.08-1.72,6.21,6.21,0,0,0-.29-1.26A3.54,3.54,0,0,0,436.78,553.34Z"/><path class="cls-5" d="M445.77,562.49a4.93,4.93,0,0,1-1.83-2.21,7.9,7.9,0,0,1-.6-3.14,8.44,8.44,0,0,1,.55-3.14,5.21,5.21,0,0,1,1.65-2.25,3.86,3.86,0,0,1,2.42-.85,4.1,4.1,0,0,1,3.65,1.71,7.3,7.3,0,0,1,1.16,4.2v.66h-7.47a5.82,5.82,0,0,0,.91,3.08,2.84,2.84,0,0,0,2.53,1.27,9,9,0,0,0,3.15-1.22l.64,1.33a5.16,5.16,0,0,1-3.81,1.4A5.23,5.23,0,0,1,445.77,562.49Zm5.15-6.46q-.22-3.62-2.54-3.62-2.62,0-3,3.62Z"/><path class="cls-5" d="M460.84,552.77v5.53a9.3,9.3,0,0,0,.11,1.63,2,2,0,0,0,.45,1,1.66,1.66,0,0,0,.88.5,6.52,6.52,0,0,0,1.46.13h2.16l-.11,1.5h-2q-3,0-4-1.12a4.06,4.06,0,0,1-.81-2.35,17.61,17.61,0,0,1-.07-1.77v-5h-3.33l.21-1.5h3.12V547.2l2-.58v4.64h5v1.5Z"/><path class="cls-5" d="M475.17,564.68a16.11,16.11,0,0,1-3.28-9.92,16.69,16.69,0,0,1,3.24-10H477a18.31,18.31,0,0,0-3.05,9.93,16.64,16.64,0,0,0,.8,5.27,22,22,0,0,0,2.27,4.75Z"/><path class="cls-5" d="M485.77,551.12l1.84-5.13h1.56l-1.23,5.13Z"/><path class="cls-5" d="M503.71,546h2.12l-7.62,19.43h-2.05Z"/><path class="cls-5" d="M511.78,562.49a4.93,4.93,0,0,1-1.83-2.21,7.9,7.9,0,0,1-.6-3.14,8.44,8.44,0,0,1,.55-3.14,5.22,5.22,0,0,1,1.65-2.25,3.86,3.86,0,0,1,2.42-.85,4.1,4.1,0,0,1,3.65,1.71,7.3,7.3,0,0,1,1.16,4.2v.66h-7.46a5.82,5.82,0,0,0,.91,3.08,2.84,2.84,0,0,0,2.53,1.27,9,9,0,0,0,3.15-1.22l.64,1.33a5.15,5.15,0,0,1-3.81,1.4A5.22,5.22,0,0,1,511.78,562.49Zm5.14-6.46q-.21-3.62-2.54-3.62-2.62,0-3,3.62Z"/><path class="cls-5" d="M522.29,551.26h2.23l2.8,4.53,2.8-4.53h2L528.54,557l3.75,6.07h-2.17l-2.88-4.69-3,4.69h-2.15l3.87-6Z"/><path class="cls-5" d="M540.82,563.32a3.87,3.87,0,0,1-2-.53,3.62,3.62,0,0,1-1.34-1.35v6.13l-2,.21V551.26h2v1.62a4.16,4.16,0,0,1,1.38-1.43,3.54,3.54,0,0,1,1.94-.55,4.27,4.27,0,0,1,4.14,2.41,7.94,7.94,0,0,1,.77,3.63,7.26,7.26,0,0,1-1.62,5.11A4.19,4.19,0,0,1,540.82,563.32Zm-3.38-6.23q0,4.73,3.31,4.73,3,0,3-4.73a6.15,6.15,0,0,0-.8-3.65,2.65,2.65,0,0,0-2.21-1q-2.75,0-3.18,3.18A10.47,10.47,0,0,0,537.43,557.09Z"/><path class="cls-5" d="M552.83,563h-2V551.26h1.6l.16,2.18a4.9,4.9,0,0,1,1.89-1.89,5.42,5.42,0,0,1,2.65-.64h.95v1.82H556.9a4.42,4.42,0,0,0-3,.94,3.53,3.53,0,0,0-1.1,2.83Z"/><path class="cls-5" d="M564.59,562.49a4.93,4.93,0,0,1-1.83-2.21,7.9,7.9,0,0,1-.6-3.14,8.44,8.44,0,0,1,.55-3.14,5.22,5.22,0,0,1,1.65-2.25,3.86,3.86,0,0,1,2.42-.85,4.1,4.1,0,0,1,3.65,1.71,7.3,7.3,0,0,1,1.16,4.2v.66h-7.46a5.82,5.82,0,0,0,.91,3.08,2.84,2.84,0,0,0,2.53,1.27,9,9,0,0,0,3.15-1.22l.64,1.33a5.15,5.15,0,0,1-3.81,1.4A5.22,5.22,0,0,1,564.59,562.49Zm5.14-6.46q-.21-3.62-2.54-3.62-2.62,0-3,3.62Z"/><path class="cls-5" d="M583.66,557.55a3.51,3.51,0,0,1,.7,2.36,3,3,0,0,1-1.18,2.48,4.59,4.59,0,0,1-2.95.93,9.55,9.55,0,0,1-2.46-.32,5.21,5.21,0,0,1-1.76-.75l.48-1.41a6.1,6.1,0,0,0,1.43.56,7.53,7.53,0,0,0,2.12.29,3.12,3.12,0,0,0,1.83-.48,1.48,1.48,0,0,0,.68-1.27,2.06,2.06,0,0,0-.34-1.25,2.24,2.24,0,0,0-1.3-.69l-2-.48a3.82,3.82,0,0,1-2.3-1.25,3.5,3.5,0,0,1-.57-2,3.2,3.2,0,0,1,1-2.26,3.9,3.9,0,0,1,2.89-1.05h.14a7.62,7.62,0,0,1,3.64.81l-.43,1.38a8.06,8.06,0,0,0-3.18-.67,2.67,2.67,0,0,0-1.64.5,1.49,1.49,0,0,0-.64,1.23,1.65,1.65,0,0,0,.32,1.11,2.35,2.35,0,0,0,1.22.59l2.05.5A4.18,4.18,0,0,1,583.66,557.55Z"/><path class="cls-5" d="M596.86,557.55a3.51,3.51,0,0,1,.7,2.36,3,3,0,0,1-1.18,2.48,4.59,4.59,0,0,1-2.95.93A9.55,9.55,0,0,1,591,563a5.22,5.22,0,0,1-1.76-.75l.48-1.41a6.1,6.1,0,0,0,1.43.56,7.54,7.54,0,0,0,2.12.29,3.12,3.12,0,0,0,1.83-.48,1.48,1.48,0,0,0,.68-1.27,2.06,2.06,0,0,0-.34-1.25,2.25,2.25,0,0,0-1.31-.69l-2-.48a3.83,3.83,0,0,1-2.3-1.25,3.51,3.51,0,0,1-.57-2,3.19,3.19,0,0,1,1-2.26,3.9,3.9,0,0,1,2.9-1.05h.14a7.63,7.63,0,0,1,3.64.81l-.43,1.38a8.07,8.07,0,0,0-3.18-.67,2.67,2.67,0,0,0-1.64.5,1.49,1.49,0,0,0-.64,1.23,1.65,1.65,0,0,0,.32,1.11,2.35,2.35,0,0,0,1.22.59l2.05.5A4.18,4.18,0,0,1,596.86,557.55Z"/><path class="cls-5" d="M602.54,552.77v-1.5h5.32v10.28h3.37V563h-9.07v-1.5h3.74v-8.78Zm3-4.61V547.1a.83.83,0,0,1,.43-.68,1.42,1.42,0,0,1,1.73,0,.83.83,0,0,1,.44.68v1.06a.83.83,0,0,1-.44.68,1.41,1.41,0,0,1-1.73,0A.83.83,0,0,1,605.58,548.16Z"/><path class="cls-5" d="M623.45,552.63a7.33,7.33,0,0,1,1.28,4.49,6.91,6.91,0,0,1-1.39,4.48,4.58,4.58,0,0,1-3.76,1.71,5.07,5.07,0,0,1-2.26-.48,4.23,4.23,0,0,1-1.6-1.33,7.41,7.41,0,0,1-1.24-4.45,6.89,6.89,0,0,1,1.37-4.44,4.64,4.64,0,0,1,3.84-1.7A4.39,4.39,0,0,1,623.45,552.63Zm-3.87,9.18a2.77,2.77,0,0,0,2.79-2,6.54,6.54,0,0,0,.4-2.25,14.57,14.57,0,0,0-.09-1.8,4.75,4.75,0,0,0-.93-2.38,2.61,2.61,0,0,0-2.18-.92,2.73,2.73,0,0,0-2.73,2.08,7.11,7.11,0,0,0-.39,2.34,8.22,8.22,0,0,0,.68,3.57A2.47,2.47,0,0,0,619.58,561.81Z"/><path class="cls-5" d="M633.87,550.91q3.66,0,3.66,4.64V563h-2v-7.26a8.58,8.58,0,0,0-.13-1.78,2.38,2.38,0,0,0-.39-.88,2.13,2.13,0,0,0-1.79-.71,3.2,3.2,0,0,0-2.13.73,2.4,2.4,0,0,0-.87,1.93v8h-2V551.26h1.79l.11,1.28A4.19,4.19,0,0,1,633.87,550.91Z"/><path class="cls-5" d="M649.67,557.55a3.51,3.51,0,0,1,.7,2.36,3,3,0,0,1-1.18,2.48,4.59,4.59,0,0,1-2.95.93,9.55,9.55,0,0,1-2.46-.32,5.22,5.22,0,0,1-1.76-.75l.48-1.41a6.1,6.1,0,0,0,1.43.56,7.54,7.54,0,0,0,2.12.29,3.12,3.12,0,0,0,1.83-.48,1.48,1.48,0,0,0,.68-1.27,2.06,2.06,0,0,0-.34-1.25,2.25,2.25,0,0,0-1.31-.69l-2-.48a3.83,3.83,0,0,1-2.3-1.25,3.51,3.51,0,0,1-.57-2,3.19,3.19,0,0,1,1-2.26,3.9,3.9,0,0,1,2.9-1.05h.14a7.63,7.63,0,0,1,3.64.81l-.43,1.38a8.07,8.07,0,0,0-3.18-.67,2.67,2.67,0,0,0-1.64.5,1.49,1.49,0,0,0-.64,1.23,1.65,1.65,0,0,0,.32,1.11,2.35,2.35,0,0,0,1.22.59l2.05.5A4.18,4.18,0,0,1,649.67,557.55Z"/><path class="cls-5" d="M660.79,546,659,551.12H657.4l1.26-5.13Z"/><path class="cls-5" d="M670.54,566.5l.55-6.52h2.76l-2,6.52Z"/><path class="cls-5" d="M699.61,564.68a16.12,16.12,0,0,1-3.28-9.92,16.68,16.68,0,0,1,3.24-10h1.89a18.29,18.29,0,0,0-3.05,9.93,16.61,16.61,0,0,0,.8,5.27,21.86,21.86,0,0,0,2.27,4.75Z"/><path class="cls-5" d="M711.25,563h-2V551.26h1.6l.16,2.18a4.9,4.9,0,0,1,1.89-1.89,5.42,5.42,0,0,1,2.65-.64h.95v1.82h-1.22a4.42,4.42,0,0,0-3,.94,3.53,3.53,0,0,0-1.1,2.83Z"/><path class="cls-5" d="M723,562.49a4.93,4.93,0,0,1-1.83-2.21,7.9,7.9,0,0,1-.6-3.14,8.44,8.44,0,0,1,.55-3.14,5.22,5.22,0,0,1,1.65-2.25,3.86,3.86,0,0,1,2.42-.85,4.1,4.1,0,0,1,3.65,1.71,7.3,7.3,0,0,1,1.16,4.2v.66h-7.46a5.82,5.82,0,0,0,.91,3.08,2.84,2.84,0,0,0,2.53,1.27,9,9,0,0,0,3.15-1.22l.64,1.33a5.15,5.15,0,0,1-3.81,1.4A5.22,5.22,0,0,1,723,562.49Zm5.14-6.46q-.21-3.62-2.54-3.62-2.62,0-3,3.62Z"/><path class="cls-5" d="M741.57,552.89v-1.62h2v16.31l-1.93.21,0-6.35a5.13,5.13,0,0,1-1.55,1.39,4.25,4.25,0,0,1-2.12.49,4.71,4.71,0,0,1-2.22-.5,4.05,4.05,0,0,1-1.54-1.4A8,8,0,0,1,733,557a7.25,7.25,0,0,1,1.25-4.35,4.86,4.86,0,0,1,5.88-1.22A4.47,4.47,0,0,1,741.57,552.89Zm0,4.2q0-4.67-3.45-4.67-3.19,0-3.19,4.67,0,3.51,1.91,4.46a3.19,3.19,0,0,0,1.39.27,3.1,3.1,0,0,0,1.51-.38,2.71,2.71,0,0,0,1.07-1.05A6.51,6.51,0,0,0,741.57,557.09Z"/><path class="cls-5" d="M749.75,566.5l.55-6.52h2.76l-2,6.52Z"/><path class="cls-5" d="M777.26,563h-2V551.26h1.6l.16,2.18a4.88,4.88,0,0,1,1.89-1.89,5.4,5.4,0,0,1,2.65-.64h.95v1.82h-1.22a4.42,4.42,0,0,0-3,.94,3.53,3.53,0,0,0-1.1,2.83Z"/><path class="cls-5" d="M789,562.49a4.93,4.93,0,0,1-1.83-2.21,7.9,7.9,0,0,1-.6-3.14,8.44,8.44,0,0,1,.55-3.14,5.21,5.21,0,0,1,1.65-2.25,3.86,3.86,0,0,1,2.42-.85,4.1,4.1,0,0,1,3.65,1.71,7.3,7.3,0,0,1,1.16,4.2v.66h-7.47a5.82,5.82,0,0,0,.91,3.08,2.84,2.84,0,0,0,2.53,1.27,9,9,0,0,0,3.15-1.22l.64,1.33a5.16,5.16,0,0,1-3.81,1.4A5.23,5.23,0,0,1,789,562.49Zm5.15-6.46q-.22-3.62-2.54-3.62-2.62,0-3,3.62Z"/><path class="cls-5" d="M808.1,557.55a3.51,3.51,0,0,1,.7,2.36,3,3,0,0,1-1.18,2.48,4.59,4.59,0,0,1-2.95.93,9.55,9.55,0,0,1-2.46-.32,5.22,5.22,0,0,1-1.76-.75l.48-1.41a6.1,6.1,0,0,0,1.43.56,7.54,7.54,0,0,0,2.12.29,3.12,3.12,0,0,0,1.83-.48,1.48,1.48,0,0,0,.68-1.27,2.06,2.06,0,0,0-.34-1.25,2.25,2.25,0,0,0-1.31-.69l-2-.48a3.83,3.83,0,0,1-2.3-1.25,3.51,3.51,0,0,1-.57-2,3.19,3.19,0,0,1,1-2.26,3.9,3.9,0,0,1,2.9-1.05h.14a7.63,7.63,0,0,1,3.64.81l-.43,1.38a8.07,8.07,0,0,0-3.18-.67,2.67,2.67,0,0,0-1.64.5,1.49,1.49,0,0,0-.64,1.23,1.65,1.65,0,0,0,.32,1.11,2.35,2.35,0,0,0,1.22.59l2.05.5A4.18,4.18,0,0,1,808.1,557.55Z"/><path class="cls-5" d="M815.76,566.5l.55-6.52h2.76l-2,6.52Z"/><path class="cls-5" d="M845.1,550.91q3.66,0,3.66,4.64V563h-2v-7.26a8.58,8.58,0,0,0-.13-1.78,2.38,2.38,0,0,0-.39-.88,2.13,2.13,0,0,0-1.79-.71,3.2,3.2,0,0,0-2.13.73,2.4,2.4,0,0,0-.87,1.93v8h-2V551.26h1.79l.11,1.28A4.19,4.19,0,0,1,845.1,550.91Z"/><path class="cls-5" d="M855,562.49a4.93,4.93,0,0,1-1.83-2.21,7.9,7.9,0,0,1-.6-3.14,8.44,8.44,0,0,1,.55-3.14,5.22,5.22,0,0,1,1.65-2.25,3.86,3.86,0,0,1,2.42-.85,4.1,4.1,0,0,1,3.65,1.71,7.3,7.3,0,0,1,1.16,4.2v.66h-7.46a5.82,5.82,0,0,0,.91,3.08,2.84,2.84,0,0,0,2.53,1.27,9,9,0,0,0,3.15-1.22l.64,1.33a5.15,5.15,0,0,1-3.81,1.4A5.22,5.22,0,0,1,855,562.49Zm5.14-6.46q-.21-3.62-2.54-3.62-2.62,0-3,3.62Z"/><path class="cls-5" d="M865.54,551.26h2.23l2.8,4.53,2.8-4.53h2L871.79,557l3.75,6.07h-2.17l-2.88-4.69-3,4.69h-2.15l3.87-6Z"/><path class="cls-5" d="M883.31,552.77v5.53a9.3,9.3,0,0,0,.11,1.63,2,2,0,0,0,.45,1,1.66,1.66,0,0,0,.88.5,6.52,6.52,0,0,0,1.46.13h2.16l-.11,1.5h-2q-3,0-4-1.12a4.06,4.06,0,0,1-.81-2.35,17.61,17.61,0,0,1-.07-1.77v-5H878l.21-1.5h3.12V547.2l2-.58v4.64h5v1.5Z"/><path class="cls-5" d="M895.76,544.73a16.69,16.69,0,0,1,3.24,10,16.12,16.12,0,0,1-3.28,9.92h-1.89a22,22,0,0,0,2.27-4.75,16.64,16.64,0,0,0,.8-5.27,18.31,18.31,0,0,0-3.05-9.93Z"/><path class="cls-5" d="M929.48,553.4H917v-1.61h12.46Zm0,4.74H917v-1.59h12.46Z"/><path class="cls-5" d="M931.55,550.64v-1.78l11,5.66v1l-11,5.22V559l8.39-4Z"/><path class="cls-5" d="M961.78,558.16a2.36,2.36,0,0,0-.86-2,3.88,3.88,0,0,0-2.24-.78V554a3.89,3.89,0,0,0,2.24-.77,2.35,2.35,0,0,0,.86-1.94v-2.5a4.49,4.49,0,0,1,.88-3.08,3.84,3.84,0,0,1,2.95-1h2.48v1.46h-2.45a1.34,1.34,0,0,0-1.09.46,3.73,3.73,0,0,0-.38,2.11v2.59a3,3,0,0,1-1,2.52,6.63,6.63,0,0,1-1.61.84,4.49,4.49,0,0,1,2.17,1.41,3.57,3.57,0,0,1,.47,1.94v2.59a3.91,3.91,0,0,0,.37,2.1,1.31,1.31,0,0,0,1.11.48h2.45v1.45h-2.48a3.84,3.84,0,0,1-2.95-1,4.48,4.48,0,0,1-.88-3.08Z"/><path class="cls-5" d="M407.6,613h-2V601.26h1.6l.16,2.18a4.88,4.88,0,0,1,1.89-1.89,5.4,5.4,0,0,1,2.65-.64h.95v1.82h-1.22a4.42,4.42,0,0,0-3,.94,3.53,3.53,0,0,0-1.1,2.83Z"/><path class="cls-5" d="M419.37,612.49a4.93,4.93,0,0,1-1.83-2.21,7.9,7.9,0,0,1-.6-3.14,8.44,8.44,0,0,1,.55-3.14,5.21,5.21,0,0,1,1.65-2.25,3.86,3.86,0,0,1,2.42-.85,4.1,4.1,0,0,1,3.65,1.71,7.3,7.3,0,0,1,1.16,4.2v.66h-7.47a5.82,5.82,0,0,0,.91,3.08,2.84,2.84,0,0,0,2.53,1.27,9,9,0,0,0,3.15-1.22l.64,1.33a5.16,5.16,0,0,1-3.81,1.4A5.23,5.23,0,0,1,419.37,612.49Zm5.15-6.46q-.22-3.62-2.54-3.62-2.62,0-3,3.62Z"/><path class="cls-5" d="M438.44,607.55a3.51,3.51,0,0,1,.7,2.36,3,3,0,0,1-1.18,2.48,4.59,4.59,0,0,1-2.95.93,9.55,9.55,0,0,1-2.46-.32,5.22,5.22,0,0,1-1.76-.75l.48-1.41a6.1,6.1,0,0,0,1.43.56,7.54,7.54,0,0,0,2.12.29,3.12,3.12,0,0,0,1.83-.48,1.48,1.48,0,0,0,.68-1.27,2.06,2.06,0,0,0-.34-1.25,2.25,2.25,0,0,0-1.31-.69l-2-.48a3.83,3.83,0,0,1-2.3-1.25,3.51,3.51,0,0,1-.57-2,3.19,3.19,0,0,1,1-2.26,3.9,3.9,0,0,1,2.9-1.05h.14a7.63,7.63,0,0,1,3.64.81l-.43,1.38a8.07,8.07,0,0,0-3.18-.67,2.67,2.67,0,0,0-1.64.5,1.49,1.49,0,0,0-.64,1.23,1.65,1.65,0,0,0,.32,1.11,2.35,2.35,0,0,0,1.22.59l2.05.5A4.18,4.18,0,0,1,438.44,607.55Z"/><path class="cls-5" d="M449.58,613h-3.23v-3.23h3.23Z"/><path class="cls-5" d="M464.84,607.55a3.51,3.51,0,0,1,.7,2.36,3,3,0,0,1-1.18,2.48,4.59,4.59,0,0,1-2.95.93A9.55,9.55,0,0,1,459,613a5.22,5.22,0,0,1-1.76-.75l.48-1.41a6.1,6.1,0,0,0,1.43.56,7.54,7.54,0,0,0,2.12.29,3.12,3.12,0,0,0,1.83-.48,1.48,1.48,0,0,0,.68-1.27,2.06,2.06,0,0,0-.34-1.25,2.25,2.25,0,0,0-1.31-.69l-2-.48a3.83,3.83,0,0,1-2.3-1.25,3.51,3.51,0,0,1-.57-2,3.19,3.19,0,0,1,1-2.26,3.9,3.9,0,0,1,2.9-1.05h.14a7.63,7.63,0,0,1,3.64.81l-.43,1.38a8.07,8.07,0,0,0-3.18-.67,2.67,2.67,0,0,0-1.64.5,1.49,1.49,0,0,0-.64,1.23,1.65,1.65,0,0,0,.32,1.11,2.35,2.35,0,0,0,1.22.59l2.05.5A4.18,4.18,0,0,1,464.84,607.55Z"/><path class="cls-5" d="M472.17,612.49a4.93,4.93,0,0,1-1.83-2.21,7.9,7.9,0,0,1-.6-3.14,8.44,8.44,0,0,1,.55-3.14,5.21,5.21,0,0,1,1.65-2.25,3.86,3.86,0,0,1,2.42-.85,4.1,4.1,0,0,1,3.65,1.71,7.3,7.3,0,0,1,1.16,4.2v.66h-7.47a5.82,5.82,0,0,0,.91,3.08,2.84,2.84,0,0,0,2.53,1.27,9,9,0,0,0,3.15-1.22l.64,1.33a5.16,5.16,0,0,1-3.81,1.4A5.23,5.23,0,0,1,472.17,612.49Zm5.15-6.46q-.22-3.62-2.54-3.62-2.62,0-3,3.62Z"/><path class="cls-5" d="M488.64,600.91q3.66,0,3.66,4.64V613h-2v-7.26a8.58,8.58,0,0,0-.13-1.78,2.38,2.38,0,0,0-.39-.88,2.13,2.13,0,0,0-1.79-.71,3.2,3.2,0,0,0-2.13.73,2.4,2.4,0,0,0-.87,1.93v8h-2V601.26h1.79l.11,1.28A4.19,4.19,0,0,1,488.64,600.91Z"/><path class="cls-5" d="M503.62,602.89v-6.43l2-.21V613h-2v-1.83a3.71,3.71,0,0,1-3.37,2.09,4,4,0,0,1-3.63-1.78,8.2,8.2,0,0,1-1.13-4.48,6.8,6.8,0,0,1,1.65-4.94,4.13,4.13,0,0,1,3.12-1.2,3.87,3.87,0,0,1,2.17.55A3.12,3.12,0,0,1,503.62,602.89Zm0,4.2q0-2.75-.82-3.71a2.88,2.88,0,0,0-2.32-1,2.59,2.59,0,0,0-2.7,2.06,9.7,9.7,0,0,0-.33,2.72q0,4.62,3,4.62T503.62,607.09Z"/><path class="cls-5" d="M514.78,614.68a16.12,16.12,0,0,1-3.28-9.92,16.68,16.68,0,0,1,3.24-10h1.89a18.29,18.29,0,0,0-3.05,9.93,16.61,16.61,0,0,0,.8,5.27,21.86,21.86,0,0,0,2.27,4.75Z"/><path class="cls-5" d="M526.1,594.73a16.69,16.69,0,0,1,3.24,10,16.12,16.12,0,0,1-3.28,9.92h-1.89a22,22,0,0,0,2.27-4.75,16.64,16.64,0,0,0,.8-5.27,18.31,18.31,0,0,0-3.05-9.93Z"/><path class="cls-5" d="M538.2,616.41,539,610h2.92l-1.8,6.43Zm4-12.36h-3.21v-3.23h3.21Z"/><path class="cls-5" d="M383.85,651.26a2.35,2.35,0,0,0,.86,1.94A3.9,3.9,0,0,0,387,654v1.45a3.87,3.87,0,0,0-2.24.78,2.36,2.36,0,0,0-.87,2v2.49a4.48,4.48,0,0,1-.87,3.08,3.84,3.84,0,0,1-2.95,1h-2.49v-1.45H380a1.25,1.25,0,0,0,1.36-1.07,8,8,0,0,0,.11-1.5v-2.59a3,3,0,0,1,.67-2.2,5.84,5.84,0,0,1,2-1.15,4.42,4.42,0,0,1-2.17-1.43,3.65,3.65,0,0,1-.46-1.93v-2.59a5.31,5.31,0,0,0-.16-1.69,2.53,2.53,0,0,0-.32-.52,1.22,1.22,0,0,0-1-.35h-2.46v-1.46H380a3.84,3.84,0,0,1,2.95,1,4.49,4.49,0,0,1,.88,3.08Z"/><path class="cls-5" d="M394.08,644.73a16.69,16.69,0,0,1,3.24,10,16.12,16.12,0,0,1-3.28,9.92h-1.89a22,22,0,0,0,2.27-4.75,16.64,16.64,0,0,0,.8-5.27,18.31,18.31,0,0,0-3.05-9.93Z"/><line class="cls-8" x1="86.11" y1="564.75" x2="219.73" y2="563.97"/><polygon class="cls-7" points="216.44 568.08 215.75 567.36 219.34 563.98 215.71 560.64 216.39 559.9 220.81 563.97 216.44 568.08"/><line class="cls-8" x1="135.98" y1="362.47" x2="218.73" y2="361.98"/><polygon class="cls-7" points="215.44 366.09 214.75 365.37 218.34 361.99 214.71 358.65 215.39 357.92 219.81 361.98 215.44 366.09"/><line class="cls-8" x1="136.1" y1="225.62" x2="136.1" y2="362.12"/><line class="cls-8" x1="86.53" y1="223.92" x2="86.11" y2="564.13"/><line class="cls-8" x1="769.13" y1="801.71" x2="893.73" y2="800.98"/><polygon class="cls-7" points="890.44 805.09 889.75 804.37 893.34 800.99 889.71 797.65 890.39 796.91 894.81 800.98 890.44 805.09"/><line class="cls-8" x1="770.69" y1="608.1" x2="769.13" y2="801.75"/><line class="cls-8" x1="553.26" y1="608.2" x2="771.92" y2="608.2"/><rect class="cls-9" x="372.93" y="332.65" width="96.67" height="47.55"/><rect class="cls-9" x="372.93" y="529.65" width="96.67" height="47.55"/><rect class="cls-9" x="101.69" y="149.2" width="61.4" height="39.11"/><rect class="cls-2" x="480.93" y="332.65" width="212.07" height="47.55"/><rect class="cls-2" x="481.94" y="530.65" width="186.33" height="47.55"/><line class="cls-10" x1="421.26" y1="325.2" x2="421.26" y2="300.2"/><line class="cls-11" x1="586.26" y1="325.2" x2="586.26" y2="300.2"/><path class="cls-12" d="M358,277.79a.23.23,0,0,0-.16.07c-4.24,4.4-8.49,8.34-12.75,12.75l-6.29-4.94a.23.23,0,0,0-.29.37L345,291.1a.24.24,0,0,0,.31,0c4.29-4.46,8.59-8.43,12.9-12.9A.24.24,0,0,0,358,277.79Z"/><path class="cls-6" d="M361.13,492.54a4.27,4.27,0,0,1-2.43-.69,4.2,4.2,0,0,1-1.53-1.79,5.87,5.87,0,0,1-.5-2.46,6.24,6.24,0,0,1,.3-2,5.25,5.25,0,0,1,.85-1.62,3.84,3.84,0,0,1,1.42-1.11,4.46,4.46,0,0,1,1.93-.41,5.34,5.34,0,0,1,1.38.18,3,3,0,0,1,1,.44l-.34.82a4.3,4.3,0,0,0-2.14-.51,2.85,2.85,0,0,0-2.38,1.14,4.81,4.81,0,0,0-.88,3,4.58,4.58,0,0,0,.88,2.91,2.87,2.87,0,0,0,2.39,1.11,5.71,5.71,0,0,0,2.27-.53l.17.78a3.08,3.08,0,0,1-1.07.48A5.22,5.22,0,0,1,361.13,492.54Z"/><path class="cls-6" d="M370.19,492.54a4.09,4.09,0,0,1-2.31-.66,4.22,4.22,0,0,1-1.52-1.79,6,6,0,0,1-.52-2.55,6.34,6.34,0,0,1,.3-2A4.81,4.81,0,0,1,367,484a3.92,3.92,0,0,1,1.4-1.05,4.4,4.4,0,0,1,1.85-.38A4,4,0,0,1,374.1,485a6.26,6.26,0,0,1,.5,2.55,6.16,6.16,0,0,1-.51,2.57,4.14,4.14,0,0,1-1.52,1.79A4.22,4.22,0,0,1,370.19,492.54Zm.08-.87a2.83,2.83,0,0,0,1.78-.56,3.15,3.15,0,0,0,1.05-1.47,6.15,6.15,0,0,0,.33-2.1,5.14,5.14,0,0,0-.79-3,2.74,2.74,0,0,0-2.41-1.13,2.87,2.87,0,0,0-1.8.57,3.25,3.25,0,0,0-1.09,1.49,6,6,0,0,0-.34,2.1,4.89,4.89,0,0,0,.84,3A2.81,2.81,0,0,0,370.27,491.67Z"/><path class="cls-6" d="M377.48,492.33q0-8.48,0-9.63h.9l.07,1.9a4.46,4.46,0,0,1,1.32-1.41,2.92,2.92,0,0,1,1.67-.54,5.27,5.27,0,0,1,.77.06l-.08.91a4.06,4.06,0,0,0-.67-.05,2.61,2.61,0,0,0-2.05,1,3.38,3.38,0,0,0-.83,2.28v5.53Z"/><path class="cls-6" d="M384.48,492.33q0-8.48,0-9.63h.9l.07,1.9a4.46,4.46,0,0,1,1.32-1.41,2.92,2.92,0,0,1,1.67-.54,5.27,5.27,0,0,1,.77.06l-.08.91a4.06,4.06,0,0,0-.67-.05,2.61,2.61,0,0,0-2.05,1,3.38,3.38,0,0,0-.83,2.28v5.53Z"/><path class="cls-6" d="M395.2,492.54A4,4,0,0,1,392,491.2a5.29,5.29,0,0,1-1.17-3.62A5.53,5.53,0,0,1,392,484a3.78,3.78,0,0,1,3-1.45,3.39,3.39,0,0,1,2.72,1.21,4.86,4.86,0,0,1,1,3.25c0,.05,0,.16,0,.32s0,.27,0,.34H392a4.61,4.61,0,0,0,.9,2.94,2.84,2.84,0,0,0,2.32,1.08,5.44,5.44,0,0,0,1.63-.22,8.58,8.58,0,0,0,1.45-.62l.19.82A6.17,6.17,0,0,1,395.2,492.54Zm-3.15-5.77h5.48a3.83,3.83,0,0,0-.69-2.46,2.32,2.32,0,0,0-1.91-.86,2.45,2.45,0,0,0-2,.91A4.32,4.32,0,0,0,392.05,486.77Z"/><path class="cls-6" d="M405.64,492.54a4.27,4.27,0,0,1-2.43-.69,4.2,4.2,0,0,1-1.53-1.79,5.88,5.88,0,0,1-.5-2.46,6.24,6.24,0,0,1,.3-2,5.23,5.23,0,0,1,.85-1.62,3.84,3.84,0,0,1,1.41-1.11,4.47,4.47,0,0,1,1.93-.41,5.35,5.35,0,0,1,1.38.18,3,3,0,0,1,1,.44l-.34.82a4.3,4.3,0,0,0-2.14-.51,2.85,2.85,0,0,0-2.38,1.14,4.81,4.81,0,0,0-.88,3,4.57,4.57,0,0,0,.88,2.91,2.87,2.87,0,0,0,2.39,1.11,5.71,5.71,0,0,0,2.27-.53l.17.78a3.08,3.08,0,0,1-1.07.48A5.22,5.22,0,0,1,405.64,492.54Z"/><path class="cls-6" d="M413.54,492.53a2.46,2.46,0,0,1-1.78-.55,2.42,2.42,0,0,1-.56-1.79v-6.7h-1.36l.08-.66,1.3-.12.29-2.21.76-.05v2.24h2.81v.8h-2.81V490a2,2,0,0,0,.33,1.37,1.6,1.6,0,0,0,1.18.35,5.77,5.77,0,0,0,1.35-.2l0,.84A9.1,9.1,0,0,1,413.54,492.53Z"/><path class="cls-6" d="M424.85,492.54a3.28,3.28,0,0,1-2.18-.69,2.42,2.42,0,0,1-.82-2,2.56,2.56,0,0,1,.33-1.31,2.45,2.45,0,0,1,.94-.91,5.58,5.58,0,0,1,1.42-.54,11.56,11.56,0,0,1,1.85-.27l1.67-.11v-1.07a2.41,2.41,0,0,0-.5-1.67,2.09,2.09,0,0,0-1.62-.56,5.83,5.83,0,0,0-2.86.73l-.16-.38q-.13-.29-.18-.45a5.08,5.08,0,0,1,1.42-.59,6.59,6.59,0,0,1,1.72-.24,3.47,3.47,0,0,1,2.49.74,3.64,3.64,0,0,1,.76,2.63v6.43h-.85q0-.2-.13-.8t-.08-.62A3.68,3.68,0,0,1,424.85,492.54Zm0-.87a3.22,3.22,0,0,0,2-.66,3.1,3.1,0,0,0,1.15-1.84v-1.64l-1.28.11a7.48,7.48,0,0,0-3,.7,1.72,1.72,0,0,0-.84,1.58,1.61,1.61,0,0,0,.53,1.32A2.15,2.15,0,0,0,424.89,491.67Z"/><path class="cls-6" d="M436.48,492.54a4.27,4.27,0,0,1-2.43-.69,4.2,4.2,0,0,1-1.53-1.79,5.88,5.88,0,0,1-.5-2.46,6.24,6.24,0,0,1,.3-2,5.23,5.23,0,0,1,.85-1.62,3.84,3.84,0,0,1,1.41-1.11,4.47,4.47,0,0,1,1.93-.41,5.35,5.35,0,0,1,1.38.18,3,3,0,0,1,1,.44l-.34.82a4.3,4.3,0,0,0-2.14-.51,2.85,2.85,0,0,0-2.38,1.14,4.81,4.81,0,0,0-.88,3,4.57,4.57,0,0,0,.88,2.91,2.87,2.87,0,0,0,2.39,1.11,5.71,5.71,0,0,0,2.27-.53l.17.78a3.08,3.08,0,0,1-1.07.48A5.22,5.22,0,0,1,436.48,492.54Z"/><path class="cls-6" d="M444.38,492.53a2.46,2.46,0,0,1-1.78-.55,2.42,2.42,0,0,1-.56-1.79v-6.7h-1.36l.08-.66,1.3-.12.29-2.21.76-.05v2.24h2.81v.8h-2.81V490a2,2,0,0,0,.33,1.37,1.6,1.6,0,0,0,1.18.35,5.77,5.77,0,0,0,1.35-.2l0,.84A9.11,9.11,0,0,1,444.38,492.53Z"/><path class="cls-6" d="M448.44,480.73v-1.48h1.09v1.48Zm0,11.6V482.7h1.1v9.63Z"/><path class="cls-6" d="M456.87,492.54a4.08,4.08,0,0,1-2.31-.66,4.22,4.22,0,0,1-1.52-1.79,6,6,0,0,1-.52-2.55,6.28,6.28,0,0,1,.3-2,4.77,4.77,0,0,1,.87-1.59,3.92,3.92,0,0,1,1.4-1.05,4.4,4.4,0,0,1,1.85-.38,4.12,4.12,0,0,1,2.35.66,4.08,4.08,0,0,1,1.49,1.78,6.22,6.22,0,0,1,.5,2.55,6.16,6.16,0,0,1-.51,2.57,4.14,4.14,0,0,1-1.52,1.79A4.22,4.22,0,0,1,456.87,492.54Zm.08-.87a2.83,2.83,0,0,0,1.78-.56,3.18,3.18,0,0,0,1.05-1.47,6.2,6.2,0,0,0,.33-2.1,5.14,5.14,0,0,0-.79-3,2.74,2.74,0,0,0-2.41-1.13,2.88,2.88,0,0,0-1.8.57,3.26,3.26,0,0,0-1.08,1.49,6,6,0,0,0-.34,2.1,4.88,4.88,0,0,0,.84,3A2.81,2.81,0,0,0,456.95,491.67Z"/><path class="cls-6" d="M464.14,492.33V482.7h.95l.15,1.49a3.6,3.6,0,0,1,1.39-1.22,4.1,4.1,0,0,1,1.88-.44,3,3,0,0,1,2.44.91,4.44,4.44,0,0,1,.78,2.92v6h-1.1v-6.47a2.9,2.9,0,0,0-.54-1.85,2.1,2.1,0,0,0-1.64-.56,3.33,3.33,0,0,0-2.14.66,2.82,2.82,0,0,0-1,1.71q0,.41,0,.86v5.65Z"/><path class="cls-6" d="M524.13,492.54a4.27,4.27,0,0,1-2.43-.69,4.2,4.2,0,0,1-1.53-1.79,5.87,5.87,0,0,1-.5-2.46,6.24,6.24,0,0,1,.3-2,5.25,5.25,0,0,1,.85-1.62,3.84,3.84,0,0,1,1.42-1.11,4.46,4.46,0,0,1,1.93-.41,5.34,5.34,0,0,1,1.38.18,3,3,0,0,1,1,.44l-.34.82a4.3,4.3,0,0,0-2.14-.51,2.85,2.85,0,0,0-2.38,1.14,4.81,4.81,0,0,0-.88,3,4.58,4.58,0,0,0,.88,2.91,2.87,2.87,0,0,0,2.39,1.11,5.71,5.71,0,0,0,2.27-.53l.17.78a3.08,3.08,0,0,1-1.07.48A5.22,5.22,0,0,1,524.13,492.54Z"/><path class="cls-6" d="M533.19,492.54a4.09,4.09,0,0,1-2.31-.66,4.22,4.22,0,0,1-1.52-1.79,6,6,0,0,1-.52-2.55,6.34,6.34,0,0,1,.3-2A4.81,4.81,0,0,1,530,484a3.92,3.92,0,0,1,1.4-1.05,4.4,4.4,0,0,1,1.85-.38A4,4,0,0,1,537.1,485a6.26,6.26,0,0,1,.5,2.55,6.16,6.16,0,0,1-.51,2.57,4.14,4.14,0,0,1-1.52,1.79A4.22,4.22,0,0,1,533.19,492.54Zm.08-.87a2.83,2.83,0,0,0,1.78-.56,3.15,3.15,0,0,0,1.05-1.47,6.15,6.15,0,0,0,.33-2.1,5.14,5.14,0,0,0-.79-3,2.74,2.74,0,0,0-2.41-1.13,2.87,2.87,0,0,0-1.8.57,3.25,3.25,0,0,0-1.09,1.49,6,6,0,0,0-.34,2.1,4.89,4.89,0,0,0,.84,3A2.81,2.81,0,0,0,533.27,491.67Z"/><path class="cls-6" d="M540.48,492.33q0-8.48,0-9.63h.9l.07,1.9a4.46,4.46,0,0,1,1.32-1.41,2.92,2.92,0,0,1,1.67-.54,5.27,5.27,0,0,1,.77.06l-.08.91a4.06,4.06,0,0,0-.67-.05,2.61,2.61,0,0,0-2.05,1,3.38,3.38,0,0,0-.83,2.28v5.53Z"/><path class="cls-6" d="M547.48,492.33q0-8.48,0-9.63h.9l.07,1.9a4.46,4.46,0,0,1,1.32-1.41,2.92,2.92,0,0,1,1.67-.54,5.27,5.27,0,0,1,.77.06l-.08.91a4.06,4.06,0,0,0-.67-.05,2.61,2.61,0,0,0-2.05,1,3.38,3.38,0,0,0-.83,2.28v5.53Z"/><path class="cls-6" d="M558.2,492.54A4,4,0,0,1,555,491.2a5.29,5.29,0,0,1-1.17-3.62A5.53,5.53,0,0,1,555,484a3.78,3.78,0,0,1,3-1.45,3.39,3.39,0,0,1,2.72,1.21,4.86,4.86,0,0,1,1,3.25c0,.05,0,.16,0,.32s0,.27,0,.34H555a4.61,4.61,0,0,0,.9,2.94,2.84,2.84,0,0,0,2.32,1.08,5.44,5.44,0,0,0,1.63-.22,8.58,8.58,0,0,0,1.45-.62l.19.82A6.17,6.17,0,0,1,558.2,492.54Zm-3.15-5.77h5.48a3.83,3.83,0,0,0-.69-2.46,2.32,2.32,0,0,0-1.91-.86,2.45,2.45,0,0,0-2,.91A4.32,4.32,0,0,0,555.05,486.77Z"/><path class="cls-6" d="M568.64,492.54a4.27,4.27,0,0,1-2.43-.69,4.2,4.2,0,0,1-1.53-1.79,5.88,5.88,0,0,1-.5-2.46,6.24,6.24,0,0,1,.3-2,5.23,5.23,0,0,1,.85-1.62,3.84,3.84,0,0,1,1.41-1.11,4.47,4.47,0,0,1,1.93-.41,5.35,5.35,0,0,1,1.38.18,3,3,0,0,1,1,.44l-.34.82a4.3,4.3,0,0,0-2.14-.51,2.85,2.85,0,0,0-2.38,1.14,4.81,4.81,0,0,0-.88,3,4.57,4.57,0,0,0,.88,2.91,2.87,2.87,0,0,0,2.39,1.11,5.71,5.71,0,0,0,2.27-.53l.17.78a3.08,3.08,0,0,1-1.07.48A5.22,5.22,0,0,1,568.64,492.54Z"/><path class="cls-6" d="M576.54,492.53a2.46,2.46,0,0,1-1.78-.55,2.42,2.42,0,0,1-.56-1.79v-6.7h-1.36l.08-.66,1.3-.12.29-2.21.76-.05v2.24h2.81v.8h-2.81V490a2,2,0,0,0,.33,1.37,1.6,1.6,0,0,0,1.18.35,5.77,5.77,0,0,0,1.35-.2l0,.84A9.1,9.1,0,0,1,576.54,492.53Z"/><path class="cls-6" d="M585.29,492.33q0-8.48,0-9.63h.9l.07,1.9a4.46,4.46,0,0,1,1.32-1.41,2.92,2.92,0,0,1,1.67-.54,5.27,5.27,0,0,1,.77.06l-.08.91a4.06,4.06,0,0,0-.67-.05,2.61,2.61,0,0,0-2.05,1,3.38,3.38,0,0,0-.83,2.28v5.53Z"/><path class="cls-6" d="M596,492.54a4.09,4.09,0,0,1-2.31-.66,4.22,4.22,0,0,1-1.52-1.79,6,6,0,0,1-.52-2.55,6.34,6.34,0,0,1,.3-2,4.81,4.81,0,0,1,.87-1.59,3.92,3.92,0,0,1,1.4-1.05,4.4,4.4,0,0,1,1.85-.38,4,4,0,0,1,3.84,2.45,6.26,6.26,0,0,1,.5,2.55,6.16,6.16,0,0,1-.51,2.57,4.14,4.14,0,0,1-1.52,1.79A4.22,4.22,0,0,1,596,492.54Zm.08-.87a2.83,2.83,0,0,0,1.78-.56,3.15,3.15,0,0,0,1.05-1.47,6.15,6.15,0,0,0,.33-2.1,5.14,5.14,0,0,0-.79-3,2.74,2.74,0,0,0-2.41-1.13,2.87,2.87,0,0,0-1.8.57,3.25,3.25,0,0,0-1.09,1.49,6,6,0,0,0-.34,2.1,4.89,4.89,0,0,0,.84,3A2.81,2.81,0,0,0,596.11,491.67Z"/><path class="cls-6" d="M606.88,492.57a5.46,5.46,0,0,1-1.4-.17,4.05,4.05,0,0,1-1.2-.54,2.5,2.5,0,0,1-.87-1,3.6,3.6,0,0,1-.32-1.57V482.7h1.09v6.58a2.85,2.85,0,0,0,.21,1.16,1.55,1.55,0,0,0,.61.72,2.7,2.7,0,0,0,.84.34,5,5,0,0,0,1,.1,4.75,4.75,0,0,0,1-.1,2.61,2.61,0,0,0,.83-.35,1.57,1.57,0,0,0,.59-.72,2.85,2.85,0,0,0,.21-1.15V482.7h1.09v6.56a3.84,3.84,0,0,1-.21,1.32,2.69,2.69,0,0,1-.56.95,2.93,2.93,0,0,1-.85.61,4,4,0,0,1-1,.34A6.16,6.16,0,0,1,606.88,492.57Z"/><path class="cls-6" d="M616.45,492.53a2.46,2.46,0,0,1-1.78-.55,2.42,2.42,0,0,1-.56-1.79v-6.7h-1.36l.08-.66,1.3-.12.29-2.21.77-.05v2.24H618v.8h-2.81V490a2,2,0,0,0,.33,1.37,1.6,1.6,0,0,0,1.18.35,5.77,5.77,0,0,0,1.35-.2l0,.84A9.09,9.09,0,0,1,616.45,492.53Z"/><path class="cls-6" d="M624.3,492.54a4,4,0,0,1-3.17-1.34,5.29,5.29,0,0,1-1.17-3.62A5.54,5.54,0,0,1,621.1,484a3.78,3.78,0,0,1,3-1.45,3.39,3.39,0,0,1,2.72,1.21,4.86,4.86,0,0,1,1,3.25c0,.05,0,.16,0,.32s0,.27,0,.34h-6.71a4.61,4.61,0,0,0,.9,2.94,2.84,2.84,0,0,0,2.32,1.08,5.44,5.44,0,0,0,1.63-.22,8.59,8.59,0,0,0,1.45-.62l.18.82A6.17,6.17,0,0,1,624.3,492.54Zm-3.15-5.77h5.48a3.83,3.83,0,0,0-.69-2.46,2.32,2.32,0,0,0-1.91-.86,2.45,2.45,0,0,0-2,.91A4.32,4.32,0,0,0,621.15,486.77Z"/><line class="cls-10" x1="422.26" y1="525.2" x2="422.26" y2="500.2"/><line class="cls-10" x1="569.26" y1="525.2" x2="569.26" y2="500.2"/><path class="cls-12" d="M352,479.79a.23.23,0,0,0-.16.07c-4.24,4.4-8.49,8.34-12.75,12.75l-6.29-4.94a.23.23,0,0,0-.29.37L339,493.1a.24.24,0,0,0,.31,0c4.29-4.46,8.59-8.43,12.9-12.9A.24.24,0,0,0,352,479.79Z"/><path class="cls-12" d="M515.37,479.79a.23.23,0,0,0-.16.07c-4.24,4.4-8.49,8.34-12.75,12.75l-6.29-4.94a.23.23,0,0,0-.29.37l6.45,5.07a.24.24,0,0,0,.31,0c4.29-4.46,8.59-8.43,12.9-12.9A.24.24,0,0,0,515.37,479.79Z"/></g></g></svg>